<svg id="svg" version="1.1" xmlns="http://www.w3.org/2000/svg" xmlns:xlink="http://www.w3.org/1999/xlink" width="400" height="400" viewBox="0, 0, 400,400"><g id="svgg"><path id="path0" d="M148.600 139.030 C 143.694 139.711,138.570 141.188,139.296 141.712 C 139.635 141.957,139.547 141.992,139.025 141.822 C 136.470 140.984,125.885 147.243,120.175 152.966 C 114.678 158.475,108.208 168.680,108.963 170.648 C 109.088 170.975,109.036 171.146,108.847 171.029 C 108.263 170.668,106.618 175.711,105.399 181.600 C 101.973 198.147,106.699 220.346,116.601 234.223 C 118.324 236.637,118.749 237.595,118.100 237.604 C 117.521 237.612,113.001 241.241,113.100 241.619 C 113.155 241.828,112.975 241.955,112.700 241.900 C 112.425 241.845,112.245 242.025,112.300 242.300 C 112.355 242.575,112.175 242.755,111.900 242.700 C 111.625 242.645,111.445 242.825,111.500 243.100 C 111.555 243.375,111.375 243.555,111.100 243.500 C 110.825 243.445,110.645 243.625,110.700 243.900 C 110.755 244.175,110.575 244.355,110.300 244.300 C 110.025 244.245,109.845 244.425,109.900 244.700 C 109.955 244.975,109.775 245.155,109.500 245.100 C 109.225 245.045,109.049 245.238,109.110 245.530 C 109.170 245.821,109.067 245.965,108.880 245.849 C 108.077 245.353,101.917 254.103,99.623 259.000 C 91.600 276.123,93.934 297.310,105.459 312.000 C 108.801 316.259,112.592 320.443,115.285 322.844 C 117.108 324.470,118.690 325.890,118.800 326.000 C 122.251 329.451,135.928 337.643,143.800 340.973 C 145.780 341.811,147.940 342.733,148.600 343.022 C 150.763 343.970,160.789 347.171,164.000 347.938 C 173.672 350.251,177.743 350.924,187.400 351.806 C 197.495 352.728,212.066 352.452,220.000 351.188 C 224.200 350.520,229.278 349.618,231.000 349.236 C 231.880 349.041,233.500 348.689,234.600 348.455 C 235.700 348.222,237.860 347.649,239.400 347.182 C 240.940 346.716,242.740 346.187,243.400 346.008 C 254.929 342.871,270.342 334.856,281.000 326.454 C 305.762 306.934,312.090 280.108,297.202 257.763 C 294.856 254.242,292.444 251.526,291.940 251.837 C 291.758 251.950,291.704 251.794,291.821 251.491 C 292.173 250.573,284.029 243.688,283.198 244.201 C 282.968 244.343,282.830 244.221,282.890 243.930 C 282.951 243.638,282.692 243.424,282.316 243.453 C 281.939 243.482,281.669 243.302,281.716 243.053 C 281.762 242.804,281.404 242.613,280.920 242.630 C 280.436 242.646,280.131 242.511,280.243 242.330 C 280.356 242.148,280.257 242.000,280.024 242.000 C 279.278 242.000,279.567 240.793,280.725 239.072 C 286.405 230.630,292.447 217.180,291.807 214.405 C 291.658 213.758,291.701 213.587,291.927 213.926 C 292.485 214.759,293.570 209.588,294.791 200.284 C 295.353 196.003,295.299 192.248,294.597 186.615 C 294.269 183.984,293.997 181.734,293.994 181.615 C 293.991 181.497,293.816 181.670,293.605 182.000 C 293.342 182.412,293.298 182.132,293.463 181.107 C 293.595 180.285,293.514 179.115,293.284 178.507 C 293.053 177.898,292.755 176.898,292.621 176.284 C 292.470 175.595,292.204 175.274,291.926 175.445 C 291.644 175.620,291.588 175.543,291.776 175.239 C 292.150 174.634,291.696 172.693,291.246 172.972 C 291.064 173.084,290.990 172.776,291.081 172.288 C 291.374 170.716,285.585 160.115,284.724 160.647 C 284.447 160.818,284.389 160.742,284.571 160.447 C 286.186 157.834,265.954 142.377,262.270 143.409 C 261.687 143.572,261.572 143.533,261.920 143.290 C 262.618 142.804,257.418 141.270,252.637 140.552 C 238.002 138.354,220.632 143.326,209.669 152.851 C 209.068 153.373,207.572 154.647,206.344 155.683 C 205.116 156.719,203.419 158.474,202.574 159.583 C 200.777 161.940,200.424 162.027,199.439 160.357 C 196.300 155.044,179.856 142.402,177.339 143.368 C 177.020 143.491,176.859 143.428,176.982 143.229 C 177.219 142.846,173.122 141.395,167.800 139.977 C 164.692 139.149,152.190 138.532,148.600 139.030 M51.200 158.793 C 32.152 161.245,18.654 183.935,22.430 207.154 C 24.497 219.859,30.565 230.207,40.956 238.742 C 44.617 241.749,51.897 245.553,57.800 247.543 C 65.834 250.251,79.121 250.975,76.838 248.580 C 72.702 244.243,66.610 225.896,65.222 213.600 C 64.962 211.290,64.580 207.976,64.374 206.236 C 63.878 202.040,63.896 190.260,64.406 186.000 C 64.629 184.130,65.000 180.980,65.230 179.000 C 65.763 174.402,67.021 168.245,68.021 165.340 C 69.152 162.052,69.087 161.822,66.738 160.811 C 62.056 158.797,56.635 158.093,51.200 158.793 M340.800 158.644 C 334.717 159.366,329.848 161.936,331.032 163.800 C 331.758 164.942,333.537 171.893,334.253 176.380 C 338.482 202.905,334.647 228.912,323.908 246.529 C 322.858 248.251,322.000 249.736,322.000 249.829 C 322.000 250.392,332.350 249.913,336.057 249.180 C 352.118 245.999,366.419 235.117,372.625 221.353 C 375.124 215.810,375.110 215.849,376.371 211.000 C 383.691 182.853,365.271 155.741,340.800 158.644 M166.128 174.131 C 191.319 183.275,190.045 219.542,164.332 225.250 C 142.160 230.172,124.259 207.146,134.424 186.778 C 139.961 175.682,154.464 169.897,166.128 174.131 M255.209 173.916 C 272.323 179.942,279.051 198.530,269.478 213.340 C 254.745 236.135,219.474 224.843,220.935 197.800 C 221.857 180.729,239.547 168.402,255.209 173.916 M244.707 190.690 C 245.426 190.779,246.506 190.777,247.107 190.686 C 247.708 190.595,247.120 190.522,245.800 190.524 C 244.480 190.526,243.988 190.601,244.707 190.690 M256.200 195.200 C 257.059 196.080,257.852 196.800,257.962 196.800 C 258.072 196.800,257.459 196.080,256.600 195.200 C 255.741 194.320,254.948 193.600,254.838 193.600 C 254.728 193.600,255.341 194.320,256.200 195.200 M234.378 195.900 L 233.000 197.400 234.500 196.022 C 235.896 194.738,236.184 194.400,235.878 194.400 C 235.812 194.400,235.137 195.075,234.378 195.900 M147.314 205.800 C 147.317 206.900,147.395 207.303,147.487 206.695 C 147.579 206.086,147.577 205.186,147.482 204.695 C 147.387 204.203,147.311 204.700,147.314 205.800 M260.909 206.000 C 260.909 206.990,260.987 207.395,261.082 206.900 C 261.178 206.405,261.178 205.595,261.082 205.100 C 260.987 204.605,260.909 205.010,260.909 206.000 M196.400 239.463 C 198.050 239.804,199.976 240.097,200.680 240.113 C 201.384 240.129,201.875 240.278,201.772 240.445 C 201.669 240.612,202.173 240.565,202.892 240.340 C 210.925 237.828,222.584 238.365,224.516 241.334 C 225.252 242.465,225.665 245.997,225.049 245.883 C 224.802 245.837,224.645 246.025,224.700 246.300 C 224.755 246.575,224.500 246.800,224.133 246.800 C 223.767 246.800,223.590 246.923,223.740 247.074 C 225.642 248.975,211.461 250.515,206.323 248.965 C 205.950 248.852,204.880 249.151,203.945 249.628 C 202.522 250.354,201.881 250.449,200.022 250.208 C 198.800 250.049,197.367 249.921,196.839 249.921 C 196.231 249.922,196.059 249.811,196.372 249.617 C 197.480 248.932,195.271 248.783,190.989 249.252 C 184.522 249.962,178.339 248.559,177.536 246.200 C 177.461 245.980,177.263 245.846,177.095 245.902 C 176.732 246.023,177.166 242.880,177.641 241.953 C 177.823 241.597,177.843 241.147,177.686 240.953 C 177.529 240.759,177.560 240.730,177.755 240.888 C 177.950 241.047,178.580 240.847,179.155 240.445 C 181.656 238.696,190.311 238.203,196.400 239.463 M136.213 285.039 C 139.204 288.050,141.027 289.599,141.406 289.453 C 141.740 289.325,141.950 289.437,141.895 289.714 C 141.843 289.981,142.038 290.151,142.330 290.090 C 142.621 290.030,142.758 290.145,142.633 290.346 C 142.323 290.849,144.314 292.101,144.873 291.755 C 145.131 291.595,145.213 291.655,145.066 291.894 C 144.838 292.261,146.488 293.446,151.600 296.585 C 159.619 301.511,174.956 307.397,184.600 309.252 C 196.262 311.494,202.863 312.099,215.800 312.109 C 227.231 312.119,233.605 311.612,242.200 310.011 C 243.520 309.765,245.230 309.467,246.000 309.348 C 246.770 309.230,247.850 308.982,248.400 308.797 C 248.950 308.612,250.108 308.343,250.972 308.199 C 252.148 308.003,252.400 307.841,251.972 307.556 C 251.569 307.288,251.707 307.247,252.442 307.417 C 253.095 307.568,254.885 307.199,257.242 306.429 C 262.120 304.834,263.675 304.820,264.773 306.362 C 265.808 307.816,265.819 308.814,264.813 310.092 C 264.380 310.643,264.155 311.236,264.313 311.410 C 264.471 311.585,264.285 311.614,263.900 311.476 C 262.800 311.082,261.625 311.637,262.629 312.077 C 263.172 312.315,262.976 312.364,261.966 312.243 C 260.334 312.048,258.975 312.583,260.242 312.922 C 260.659 313.033,260.280 313.104,259.400 313.079 C 256.890 313.009,253.112 314.055,254.400 314.463 C 255.219 314.723,255.146 314.753,254.000 314.630 C 251.810 314.395,246.236 315.691,247.800 316.072 C 248.660 316.282,248.490 316.313,247.200 316.182 C 246.210 316.081,244.410 316.181,243.200 316.403 C 235.923 317.741,223.687 318.800,215.493 318.801 C 209.277 318.801,206.426 318.604,195.144 317.394 C 192.364 317.096,189.754 316.904,189.344 316.968 C 188.918 317.035,188.857 316.999,189.200 316.883 C 190.122 316.572,182.789 315.228,181.200 315.416 C 180.004 315.559,179.946 315.532,180.800 315.231 C 181.976 314.818,181.027 314.667,177.600 314.721 C 176.048 314.746,175.965 314.710,177.000 314.460 C 178.512 314.095,173.638 312.700,171.982 313.024 C 171.170 313.183,171.135 313.157,171.779 312.875 C 172.851 312.406,171.239 311.960,169.441 312.230 C 168.532 312.366,168.406 312.325,168.971 312.078 C 170.016 311.620,169.002 311.219,167.375 311.447 C 166.399 311.583,166.335 311.547,167.000 311.234 L 167.800 310.856 167.000 310.768 C 166.560 310.719,165.660 310.703,165.000 310.732 C 164.046 310.773,163.958 310.718,164.571 310.462 C 165.610 310.028,164.497 309.562,163.139 309.862 C 162.391 310.027,162.322 309.982,162.800 309.641 C 163.478 309.156,163.127 309.054,161.200 309.174 C 160.400 309.223,160.320 309.153,160.800 308.824 C 161.472 308.363,161.187 308.278,159.200 308.346 C 158.650 308.364,158.426 308.279,158.702 308.156 C 159.572 307.768,158.798 307.185,157.760 307.446 C 157.042 307.626,156.800 307.544,156.884 307.147 C 156.966 306.762,156.645 306.633,155.800 306.711 C 154.978 306.788,154.771 306.709,155.143 306.461 C 155.560 306.183,155.573 306.031,155.198 305.799 C 154.926 305.631,154.556 305.741,154.361 306.049 C 154.021 306.587,153.964 306.528,153.839 305.500 C 153.806 305.225,153.368 305.045,152.866 305.099 C 152.364 305.154,152.057 305.032,152.183 304.827 C 152.310 304.623,152.210 304.330,151.962 304.176 C 151.714 304.023,151.353 304.146,151.161 304.449 C 150.823 304.984,150.755 304.916,150.650 303.933 C 150.623 303.677,150.350 303.383,150.044 303.281 C 149.679 303.160,149.582 303.285,149.763 303.648 C 149.914 303.952,149.737 303.795,149.370 303.300 C 148.695 302.390,147.711 302.009,148.238 302.862 C 148.416 303.150,148.348 303.215,148.055 303.034 C 147.798 302.875,147.685 302.586,147.805 302.392 C 148.108 301.901,146.492 301.101,145.892 301.446 C 145.621 301.601,145.536 301.578,145.702 301.395 C 146.099 300.958,142.754 298.741,142.079 298.995 C 141.793 299.103,141.655 299.035,141.772 298.845 C 142.046 298.402,136.373 294.166,135.711 294.318 C 135.391 294.391,135.307 294.187,135.476 293.747 C 135.679 293.217,135.582 293.121,135.049 293.326 C 134.669 293.472,134.454 293.437,134.570 293.249 C 134.686 293.061,134.425 292.585,133.991 292.191 C 133.556 291.798,133.200 291.669,133.200 291.905 C 133.200 292.140,133.425 292.424,133.700 292.535 C 133.975 292.646,134.014 292.751,133.787 292.768 C 133.024 292.827,128.696 288.098,128.631 287.135 C 128.596 286.621,128.356 286.243,128.098 286.295 C 127.840 286.348,127.725 286.141,127.842 285.836 C 127.959 285.531,127.862 285.162,127.627 285.017 C 126.903 284.569,127.164 282.657,128.105 281.508 C 129.895 279.322,131.020 279.812,136.213 285.039 M243.500 317.076 C 243.115 317.176,242.485 317.176,242.100 317.076 C 241.715 316.975,242.030 316.893,242.800 316.893 C 243.570 316.893,243.885 316.975,243.500 317.076 M193.905 317.875 C 193.522 317.975,192.802 317.979,192.305 317.883 C 191.807 317.787,192.120 317.705,193.000 317.701 C 193.880 317.696,194.287 317.775,193.905 317.875 M239.100 317.876 C 238.715 317.976,238.085 317.976,237.700 317.876 C 237.315 317.775,237.630 317.693,238.400 317.693 C 239.170 317.693,239.485 317.775,239.100 317.876 M198.200 318.400 C 198.515 318.909,197.588 318.909,196.800 318.400 C 196.312 318.085,196.364 318.011,197.076 318.006 C 197.558 318.003,198.064 318.180,198.200 318.400 M234.600 318.400 C 234.464 318.620,234.083 318.800,233.753 318.800 C 233.423 318.800,233.264 318.620,233.400 318.400 C 233.536 318.180,233.917 318.000,234.247 318.000 C 234.577 318.000,234.736 318.180,234.600 318.400 M219.100 319.497 C 217.395 319.572,214.605 319.572,212.900 319.497 C 211.195 319.422,212.590 319.361,216.000 319.361 C 219.410 319.361,220.805 319.422,219.100 319.497 " stroke="none" fill="#facf9d" fill-rule="evenodd"></path><path id="path1" d="M172.456 43.151 C 172.047 43.415,172.343 43.801,173.656 44.716 C 179.275 48.631,184.555 56.741,187.548 66.053 C 188.950 70.416,188.969 70.392,185.200 68.977 C 177.069 65.926,168.003 65.564,157.113 67.858 C 154.719 68.362,155.027 69.070,158.038 69.984 C 161.674 71.089,169.093 74.589,170.000 75.629 C 170.110 75.755,170.530 75.980,170.933 76.129 C 172.083 76.554,171.493 77.367,169.770 77.733 C 168.053 78.098,167.791 78.160,160.200 80.011 C 154.042 81.512,149.099 83.091,144.600 84.995 C 143.940 85.275,141.780 86.187,139.800 87.022 C 118.118 96.171,93.339 115.871,86.520 129.383 C 86.183 130.052,85.583 130.960,85.189 131.400 C 84.794 131.840,83.451 134.180,82.205 136.600 C 79.661 141.543,79.688 141.515,78.499 140.406 C 78.023 139.963,77.468 139.600,77.265 139.600 C 77.062 139.600,75.660 138.973,74.148 138.207 C 72.637 137.442,71.096 136.812,70.724 136.807 C 70.352 136.803,69.949 136.641,69.829 136.446 C 69.708 136.251,69.113 135.990,68.505 135.864 C 67.897 135.739,66.500 135.440,65.400 135.201 C 51.082 132.088,39.940 134.618,26.648 143.998 C 4.174 159.859,-3.047 198.289,11.316 225.600 C 18.338 238.953,30.187 250.147,44.600 257.044 C 49.184 259.237,55.837 261.600,57.429 261.600 C 57.937 261.600,58.452 261.761,58.574 261.958 C 58.695 262.155,59.471 262.410,60.297 262.525 C 61.124 262.640,63.330 262.972,65.200 263.263 C 68.992 263.853,79.626 263.975,83.549 263.475 L 86.098 263.149 85.882 264.275 C 85.763 264.894,85.455 266.120,85.197 267.000 C 84.323 269.983,83.267 278.334,83.443 280.873 C 83.539 282.263,83.694 284.480,83.788 285.800 C 84.556 296.668,90.331 309.586,99.124 320.107 C 114.014 337.923,141.885 353.014,168.340 357.586 C 169.583 357.801,172.130 358.263,174.000 358.614 C 175.870 358.965,178.120 359.308,179.000 359.376 C 179.880 359.445,182.760 359.699,185.400 359.941 C 188.040 360.183,191.865 360.385,193.900 360.391 C 196.094 360.396,197.600 360.563,197.600 360.800 C 197.600 361.020,197.870 361.200,198.200 361.200 C 198.530 361.200,198.800 361.020,198.800 360.800 C 198.800 360.554,200.914 360.392,204.300 360.380 C 207.325 360.368,211.780 360.167,214.200 359.933 C 216.620 359.698,219.455 359.525,220.500 359.549 C 221.545 359.573,222.400 359.437,222.400 359.246 C 222.400 359.055,223.345 358.794,224.500 358.665 C 230.015 358.051,245.602 354.387,249.400 352.812 C 249.840 352.630,250.830 352.264,251.600 352.000 C 252.370 351.736,253.360 351.375,253.800 351.199 C 254.240 351.022,255.680 350.469,257.000 349.970 C 285.865 339.049,308.894 316.737,314.564 294.200 C 317.116 284.058,316.832 272.383,313.866 265.458 C 312.939 263.293,313.244 263.043,316.355 263.420 C 323.021 264.230,335.048 263.747,340.600 262.446 C 344.499 261.533,347.429 260.679,347.780 260.353 C 347.989 260.159,348.449 260.000,348.801 260.000 C 349.154 260.000,350.884 259.303,352.646 258.451 C 354.407 257.599,356.246 256.776,356.732 256.622 C 357.673 256.323,361.832 253.873,364.800 251.869 C 370.231 248.202,379.069 239.854,382.107 235.521 C 383.038 234.193,384.397 232.272,385.128 231.253 C 388.861 226.042,393.666 214.331,395.000 207.189 C 396.459 199.384,396.843 185.367,395.679 182.394 C 395.466 181.847,395.075 180.230,394.812 178.800 C 393.418 171.236,390.144 163.978,384.295 155.480 C 379.734 148.855,365.444 137.600,361.592 137.600 C 361.355 137.600,360.457 137.260,359.595 136.843 C 358.734 136.427,357.078 135.882,355.915 135.631 C 354.752 135.381,352.810 134.956,351.600 134.688 C 348.600 134.023,336.779 134.048,334.200 134.725 C 333.100 135.014,331.480 135.437,330.600 135.664 C 329.720 135.892,328.687 136.240,328.305 136.439 C 327.923 136.638,327.396 136.800,327.134 136.800 C 326.264 136.800,319.436 140.461,318.071 141.660 C 316.770 142.802,315.600 142.737,315.600 141.523 C 315.600 141.315,315.060 140.359,314.400 139.400 C 313.740 138.441,313.200 137.550,313.200 137.421 C 313.200 137.291,312.043 135.434,310.628 133.293 C 302.755 121.379,290.198 109.285,275.300 99.267 C 273.282 97.910,271.547 96.800,271.445 96.800 C 271.342 96.800,269.761 95.875,267.929 94.745 C 264.455 92.600,251.062 86.000,250.184 86.000 C 250.078 86.000,249.138 85.622,248.096 85.160 C 244.957 83.770,244.705 83.674,241.800 82.768 C 240.260 82.288,238.640 81.755,238.200 81.585 C 237.760 81.414,236.500 81.061,235.400 80.800 C 234.300 80.539,233.040 80.181,232.600 80.005 C 232.160 79.828,230.757 79.454,229.481 79.174 C 226.640 78.548,226.603 78.490,227.348 75.895 C 229.897 67.014,228.854 56.716,224.546 48.223 C 223.080 45.333,222.523 45.060,222.205 47.074 C 221.096 54.106,217.304 61.379,211.014 68.539 C 208.854 70.997,208.000 71.355,208.000 69.800 C 208.000 69.250,207.820 68.800,207.600 68.800 C 207.380 68.800,207.200 68.526,207.200 68.190 C 207.200 67.855,206.546 66.280,205.746 64.690 C 199.744 52.756,189.221 44.964,177.000 43.404 C 175.900 43.263,174.550 43.070,174.000 42.975 C 173.450 42.880,172.755 42.959,172.456 43.151 M168.400 139.750 C 181.457 143.211,191.395 149.602,199.492 159.746 L 200.725 161.292 201.647 160.146 C 217.050 140.997,246.145 134.165,267.338 144.721 C 297.790 159.888,304.724 203.404,282.120 237.484 C 279.835 240.929,279.545 242.000,280.898 242.000 C 281.905 242.000,287.904 246.659,291.251 250.039 C 315.835 274.872,308.490 309.080,273.600 332.254 C 269.074 335.260,263.976 338.183,260.705 339.646 C 259.663 340.112,258.889 340.621,258.986 340.777 C 259.082 340.932,258.764 341.046,258.280 341.030 C 257.793 341.013,257.442 341.217,257.495 341.486 C 257.548 341.753,257.354 341.881,257.065 341.770 C 256.777 341.659,255.654 341.950,254.570 342.417 C 244.624 346.700,230.263 350.341,216.600 352.044 C 211.223 352.715,189.356 352.740,184.600 352.082 C 176.676 350.985,174.842 350.694,171.000 349.927 C 162.970 348.322,152.395 345.121,146.230 342.429 C 145.146 341.955,144.012 341.663,143.709 341.780 C 143.406 341.896,143.257 341.832,143.377 341.637 C 143.641 341.211,142.478 340.705,141.964 341.022 C 141.764 341.146,141.600 341.074,141.600 340.861 C 141.600 340.649,139.933 339.648,137.895 338.637 C 126.774 333.117,116.140 325.136,108.970 316.926 C 107.469 315.207,106.083 313.849,105.891 313.910 C 105.698 313.970,105.641 313.858,105.763 313.660 C 105.885 313.462,105.414 312.512,104.716 311.550 C 99.903 304.916,96.709 297.212,94.820 287.680 C 93.833 282.699,94.435 273.503,96.173 267.000 C 99.012 256.383,107.297 244.520,116.100 238.468 C 118.405 236.883,118.410 237.254,116.050 234.049 C 113.773 230.957,111.410 226.586,109.815 222.512 C 109.192 220.924,108.575 219.692,108.442 219.774 C 108.309 219.856,108.171 219.536,108.136 219.062 C 108.101 218.588,107.439 215.860,106.664 213.000 C 102.829 198.837,103.052 184.449,107.282 173.232 C 107.745 172.004,108.121 170.490,108.118 169.867 C 108.114 169.198,108.235 168.933,108.412 169.219 C 108.817 169.875,109.357 168.190,108.962 167.504 C 108.802 167.227,108.821 167.136,109.004 167.302 C 109.187 167.468,109.891 166.526,110.568 165.209 C 113.114 160.258,118.311 153.632,122.200 150.379 C 128.683 144.955,137.770 140.513,145.000 139.234 C 146.320 139.000,147.850 138.730,148.400 138.632 C 151.714 138.046,164.712 138.773,168.400 139.750 M63.241 158.948 C 69.307 160.854,69.811 161.444,68.558 165.165 C 63.767 179.394,63.285 208.782,67.581 224.800 C 68.694 228.951,71.473 237.324,72.463 239.510 C 73.088 240.891,73.600 242.090,73.600 242.175 C 73.600 242.429,76.934 248.183,77.207 248.400 C 81.948 252.171,64.036 250.675,53.756 246.442 C 33.337 238.035,21.395 220.379,21.531 198.800 C 21.666 177.348,33.499 161.382,51.600 158.228 C 53.543 157.890,61.424 158.377,63.241 158.948 M353.200 159.209 C 384.776 169.754,387.047 219.387,356.920 240.525 C 347.022 247.471,333.826 251.573,324.572 250.582 C 321.244 250.226,321.214 250.129,323.351 246.696 C 328.035 239.169,331.690 229.073,333.832 217.741 C 336.193 205.252,335.735 183.726,332.847 171.400 C 332.009 167.827,331.076 164.652,330.584 163.704 C 328.418 159.529,344.554 156.321,353.200 159.209 M151.978 195.500 L 150.600 197.000 152.100 195.622 C 152.925 194.863,153.600 194.188,153.600 194.122 C 153.600 193.816,153.262 194.104,151.978 195.500 M172.400 194.125 C 172.400 194.194,172.985 194.779,173.700 195.425 L 175.000 196.600 173.825 195.300 C 172.730 194.088,172.400 193.816,172.400 194.125 M260.101 204.200 C 260.105 205.080,260.187 205.393,260.283 204.895 C 260.379 204.398,260.375 203.678,260.275 203.295 C 260.175 202.913,260.096 203.320,260.101 204.200 M147.724 205.800 C 147.726 207.120,147.801 207.612,147.890 206.893 C 147.979 206.174,147.977 205.094,147.886 204.493 C 147.795 203.892,147.722 204.480,147.724 205.800 M260.109 207.600 C 260.109 208.590,260.187 208.995,260.282 208.500 C 260.378 208.005,260.378 207.195,260.282 206.700 C 260.187 206.205,260.109 206.610,260.109 207.600 M234.800 216.600 C 235.546 217.370,236.247 218.000,236.357 218.000 C 236.467 218.000,235.946 217.370,235.200 216.600 C 234.454 215.830,233.753 215.200,233.643 215.200 C 233.533 215.200,234.054 215.830,234.800 216.600 M244.500 221.087 C 245.105 221.178,246.095 221.178,246.700 221.087 C 247.305 220.995,246.810 220.920,245.600 220.920 C 244.390 220.920,243.895 220.995,244.500 221.087 M186.512 239.095 C 187.564 239.177,189.184 239.176,190.112 239.092 C 191.040 239.008,190.180 238.941,188.200 238.942 C 186.220 238.943,185.460 239.012,186.512 239.095 M213.300 239.094 C 214.345 239.176,216.055 239.176,217.100 239.094 C 218.145 239.012,217.290 238.944,215.200 238.944 C 213.110 238.944,212.255 239.012,213.300 239.094 M182.600 248.790 C 183.364 249.128,185.914 249.357,185.567 249.056 C 185.475 248.976,184.590 248.804,183.600 248.673 C 182.398 248.514,182.066 248.553,182.600 248.790 M187.507 249.090 C 188.226 249.179,189.306 249.177,189.907 249.086 C 190.508 248.995,189.920 248.922,188.600 248.924 C 187.280 248.926,186.788 249.001,187.507 249.090 M208.500 249.076 C 208.885 249.176,209.515 249.176,209.900 249.076 C 210.285 248.975,209.970 248.893,209.200 248.893 C 208.430 248.893,208.115 248.975,208.500 249.076 M214.100 249.476 C 214.485 249.576,215.115 249.576,215.500 249.476 C 215.885 249.375,215.570 249.293,214.800 249.293 C 214.030 249.293,213.715 249.375,214.100 249.476 M135.600 285.400 C 136.795 286.610,137.863 287.600,137.973 287.600 C 138.083 287.600,137.195 286.610,136.000 285.400 C 134.805 284.190,133.737 283.200,133.627 283.200 C 133.517 283.200,134.405 284.190,135.600 285.400 M131.600 289.800 C 132.346 290.570,133.047 291.200,133.157 291.200 C 133.267 291.200,132.746 290.570,132.000 289.800 C 131.254 289.030,130.553 288.400,130.443 288.400 C 130.333 288.400,130.854 289.030,131.600 289.800 M142.598 291.196 C 142.831 291.573,146.623 294.235,148.000 294.989 C 149.193 295.642,147.788 294.525,145.073 292.661 C 143.573 291.631,142.459 290.972,142.598 291.196 M133.600 291.325 C 133.600 291.394,134.185 291.979,134.900 292.625 L 136.200 293.800 135.025 292.500 C 133.930 291.288,133.600 291.016,133.600 291.325 M152.800 297.779 C 152.800 297.889,153.340 298.259,154.000 298.600 C 154.660 298.941,155.200 299.131,155.200 299.021 C 155.200 298.911,154.660 298.541,154.000 298.200 C 153.340 297.859,152.800 297.669,152.800 297.779 M157.200 306.600 C 157.750 306.914,158.380 307.172,158.600 307.172 C 158.820 307.172,158.550 306.914,158.000 306.600 C 157.450 306.286,156.820 306.028,156.600 306.028 C 156.380 306.028,156.650 306.286,157.200 306.600 M197.305 311.887 C 197.914 311.979,198.814 311.977,199.305 311.882 C 199.797 311.787,199.300 311.711,198.200 311.714 C 197.100 311.717,196.697 311.795,197.305 311.887 M232.105 311.887 C 232.714 311.979,233.614 311.977,234.105 311.882 C 234.597 311.787,234.100 311.711,233.000 311.714 C 231.900 311.717,231.497 311.795,232.105 311.887 M200.900 312.276 C 201.285 312.376,201.915 312.376,202.300 312.276 C 202.685 312.175,202.370 312.093,201.600 312.093 C 200.830 312.093,200.515 312.175,200.900 312.276 M208.500 312.691 C 209.325 312.778,210.675 312.778,211.500 312.691 C 212.325 312.605,211.650 312.534,210.000 312.534 C 208.350 312.534,207.675 312.605,208.500 312.691 M219.891 312.689 C 220.601 312.777,221.861 312.779,222.691 312.692 C 223.521 312.605,222.940 312.533,221.400 312.531 C 219.860 312.529,219.181 312.600,219.891 312.689 M177.000 313.600 C 177.440 313.789,178.070 313.944,178.400 313.944 C 178.778 313.944,178.704 313.817,178.200 313.600 C 177.760 313.411,177.130 313.256,176.800 313.256 C 176.422 313.256,176.496 313.383,177.000 313.600 M253.400 313.600 C 252.896 313.817,252.822 313.944,253.200 313.944 C 253.530 313.944,254.160 313.789,254.600 313.600 C 255.104 313.383,255.178 313.256,254.800 313.256 C 254.470 313.256,253.840 313.411,253.400 313.600 M191.700 316.676 C 192.085 316.776,192.715 316.776,193.100 316.676 C 193.485 316.575,193.170 316.493,192.400 316.493 C 191.630 316.493,191.315 316.575,191.700 316.676 M238.500 316.676 C 238.885 316.776,239.515 316.776,239.900 316.676 C 240.285 316.575,239.970 316.493,239.200 316.493 C 238.430 316.493,238.115 316.575,238.500 316.676 M201.491 317.889 C 202.201 317.977,203.461 317.979,204.291 317.892 C 205.121 317.805,204.540 317.733,203.000 317.731 C 201.460 317.729,200.781 317.800,201.491 317.889 M227.091 317.889 C 227.801 317.977,229.061 317.979,229.891 317.892 C 230.721 317.805,230.140 317.733,228.600 317.731 C 227.060 317.729,226.381 317.800,227.091 317.889 M208.500 318.287 C 209.105 318.378,210.095 318.378,210.700 318.287 C 211.305 318.195,210.810 318.120,209.600 318.120 C 208.390 318.120,207.895 318.195,208.500 318.287 M218.700 318.293 C 219.635 318.377,221.165 318.377,222.100 318.293 C 223.035 318.209,222.270 318.140,220.400 318.140 C 218.530 318.140,217.765 318.209,218.700 318.293 " stroke="none" fill="#8e6c4d" fill-rule="evenodd"></path><path id="path2" d="M170.100 41.410 C 169.149 42.426,168.933 43.200,169.600 43.200 C 169.820 43.200,170.000 43.560,170.000 44.000 C 170.000 44.466,170.267 44.800,170.640 44.800 C 170.991 44.800,171.783 45.340,172.400 46.000 C 173.017 46.660,173.809 47.200,174.160 47.200 C 174.512 47.200,174.800 47.344,174.800 47.520 C 174.800 47.696,175.970 49.075,177.400 50.585 C 178.830 52.094,180.000 53.570,180.000 53.865 C 180.000 54.159,180.135 54.401,180.300 54.401 C 180.465 54.402,181.050 55.392,181.600 56.600 C 182.150 57.808,182.735 58.798,182.900 58.799 C 183.065 58.799,183.200 59.160,183.200 59.600 C 183.200 60.040,183.380 60.400,183.600 60.400 C 183.820 60.400,184.000 60.839,184.000 61.376 C 184.000 61.913,184.180 62.464,184.400 62.600 C 184.620 62.736,184.800 63.197,184.800 63.624 C 184.800 64.051,184.980 64.400,185.200 64.400 C 185.420 64.400,185.600 64.925,185.600 65.567 C 185.600 66.208,185.807 66.802,186.060 66.887 C 186.313 66.971,186.448 67.254,186.360 67.515 C 186.242 67.866,185.901 67.835,185.054 67.395 C 184.424 67.068,183.569 66.800,183.154 66.800 C 182.739 66.800,182.400 66.620,182.400 66.400 C 182.400 66.180,181.680 66.000,180.800 66.000 C 179.920 66.000,179.200 65.820,179.200 65.600 C 179.200 65.380,178.480 65.200,177.600 65.200 C 176.720 65.200,176.000 65.020,176.000 64.800 C 176.000 64.550,173.608 64.400,169.624 64.400 C 165.804 64.400,163.148 64.560,163.000 64.800 C 162.864 65.020,161.953 65.200,160.976 65.200 C 159.999 65.200,159.200 65.380,159.200 65.600 C 159.200 65.820,158.300 66.000,157.200 66.000 C 156.100 66.000,155.200 66.180,155.200 66.400 C 155.200 66.620,154.917 66.800,154.571 66.800 C 152.859 66.800,151.993 70.264,153.600 70.684 C 154.040 70.799,154.400 71.052,154.400 71.247 C 154.400 71.441,155.120 71.600,156.000 71.600 C 156.880 71.600,157.600 71.780,157.600 72.000 C 157.600 72.220,158.232 72.400,159.005 72.400 C 159.778 72.400,160.723 72.565,161.105 72.766 C 162.988 73.757,166.489 75.200,167.011 75.200 C 167.335 75.200,167.600 75.380,167.600 75.600 C 167.600 75.820,168.140 76.000,168.800 76.000 C 171.106 76.000,170.331 75.403,164.152 72.422 C 162.365 71.560,159.614 70.463,158.038 69.984 C 155.027 69.070,154.719 68.362,157.113 67.858 C 168.003 65.564,177.069 65.926,185.200 68.977 C 188.969 70.392,188.950 70.416,187.548 66.053 C 184.553 56.735,179.275 48.631,173.648 44.711 C 171.397 43.142,172.036 42.703,175.829 43.213 C 189.367 45.037,199.531 52.333,205.746 64.690 C 206.546 66.280,207.200 67.855,207.200 68.190 C 207.200 68.526,207.380 68.800,207.600 68.800 C 207.820 68.800,208.000 69.250,208.000 69.800 C 208.000 71.355,208.854 70.997,211.014 68.539 C 217.304 61.379,221.096 54.106,222.205 47.074 C 222.523 45.060,223.080 45.333,224.546 48.223 C 228.854 56.716,229.897 67.014,227.348 75.895 C 226.603 78.490,226.640 78.548,229.481 79.174 C 230.757 79.454,232.160 79.828,232.600 80.005 C 233.040 80.181,234.300 80.539,235.400 80.800 C 236.500 81.061,237.760 81.414,238.200 81.585 C 238.640 81.755,240.260 82.288,241.800 82.768 C 244.705 83.674,244.957 83.770,248.096 85.160 C 249.138 85.622,250.078 86.000,250.184 86.000 C 251.062 86.000,264.455 92.600,267.929 94.745 C 269.761 95.875,271.342 96.800,271.445 96.800 C 271.699 96.800,278.548 101.418,280.784 103.098 C 293.974 113.004,303.773 122.919,310.628 133.293 C 312.043 135.434,313.200 137.291,313.200 137.421 C 313.200 137.550,313.740 138.441,314.400 139.400 C 315.060 140.359,315.600 141.315,315.600 141.523 C 315.600 142.737,316.770 142.802,318.071 141.660 C 319.436 140.461,326.264 136.800,327.134 136.800 C 327.396 136.800,327.923 136.638,328.305 136.439 C 328.687 136.240,329.720 135.892,330.600 135.664 C 331.480 135.437,333.100 135.014,334.200 134.725 C 336.779 134.048,348.600 134.023,351.600 134.688 C 352.810 134.956,354.752 135.381,355.915 135.631 C 357.078 135.882,358.734 136.427,359.595 136.843 C 360.457 137.260,361.355 137.600,361.592 137.600 C 365.444 137.600,379.734 148.855,384.295 155.480 C 390.144 163.978,393.418 171.236,394.812 178.800 C 395.075 180.230,395.466 181.847,395.679 182.394 C 396.843 185.367,396.459 199.384,395.000 207.189 C 393.666 214.331,388.861 226.042,385.128 231.253 C 384.397 232.272,383.038 234.193,382.107 235.521 C 379.069 239.854,370.231 248.202,364.800 251.869 C 361.832 253.873,357.673 256.323,356.732 256.622 C 356.246 256.776,354.407 257.599,352.646 258.451 C 350.884 259.303,349.154 260.000,348.801 260.000 C 348.449 260.000,347.989 260.159,347.780 260.353 C 347.429 260.679,344.499 261.533,340.600 262.446 C 335.048 263.747,323.021 264.230,316.355 263.420 C 313.244 263.043,312.939 263.293,313.866 265.458 C 322.524 285.671,310.345 315.563,285.998 333.854 C 277.111 340.531,266.796 346.263,257.000 349.970 C 255.680 350.469,254.240 351.022,253.800 351.199 C 253.360 351.375,252.370 351.736,251.600 352.000 C 250.830 352.264,249.840 352.630,249.400 352.812 C 245.602 354.387,230.015 358.051,224.500 358.665 C 223.345 358.794,222.400 359.055,222.400 359.246 C 222.400 359.437,221.545 359.573,220.500 359.549 C 219.455 359.525,216.620 359.698,214.200 359.933 C 211.780 360.167,207.325 360.368,204.300 360.380 C 200.914 360.392,198.800 360.554,198.800 360.800 C 198.800 361.057,202.659 361.200,209.576 361.200 C 216.329 361.200,220.445 361.051,220.600 360.800 C 220.736 360.580,222.007 360.400,223.424 360.400 C 224.875 360.400,226.000 360.225,226.000 360.000 C 226.000 359.780,226.900 359.600,228.000 359.600 C 229.100 359.600,230.000 359.420,230.000 359.200 C 230.000 358.980,230.900 358.800,232.000 358.800 C 233.100 358.800,234.000 358.646,234.000 358.458 C 234.000 358.270,235.288 358.008,236.862 357.876 C 238.436 357.744,239.912 357.448,240.142 357.218 C 240.372 356.988,241.053 356.800,241.656 356.800 C 242.259 356.800,242.864 356.620,243.000 356.400 C 243.136 356.180,243.779 356.000,244.430 356.000 C 245.855 356.000,248.800 355.126,248.800 354.703 C 248.800 354.536,249.340 354.400,250.000 354.400 C 250.660 354.400,251.200 354.220,251.200 354.000 C 251.200 353.780,251.740 353.600,252.400 353.600 C 253.060 353.600,253.600 353.420,253.600 353.200 C 253.600 352.980,253.955 352.800,254.388 352.800 C 254.821 352.800,255.817 352.440,256.600 352.000 C 257.383 351.560,258.559 351.200,259.212 351.200 C 259.865 351.200,260.400 351.020,260.400 350.800 C 260.400 350.580,260.720 350.400,261.112 350.400 C 261.503 350.400,262.083 350.040,262.400 349.600 C 262.717 349.160,263.297 348.800,263.688 348.800 C 264.080 348.800,264.400 348.620,264.400 348.400 C 264.400 348.180,264.940 348.000,265.600 348.000 C 266.260 348.000,266.800 347.850,266.800 347.668 C 266.800 347.485,267.205 347.147,267.700 346.917 C 271.757 345.029,274.000 343.827,274.000 343.540 C 274.000 343.353,274.270 343.200,274.600 343.200 C 274.930 343.200,275.200 343.020,275.200 342.800 C 275.200 342.580,275.560 342.400,276.000 342.400 C 276.440 342.400,276.800 342.251,276.800 342.068 C 276.800 341.886,277.680 341.325,278.755 340.821 C 279.831 340.317,281.173 339.477,281.738 338.953 C 282.303 338.429,283.003 338.000,283.294 338.000 C 283.585 338.000,284.083 337.640,284.400 337.200 C 284.717 336.760,285.185 336.400,285.440 336.400 C 285.695 336.400,286.645 335.680,287.552 334.800 C 288.459 333.920,289.332 333.200,289.492 333.200 C 289.652 333.200,290.416 332.524,291.191 331.698 C 291.966 330.872,293.095 329.942,293.700 329.631 C 294.305 329.319,294.800 328.735,294.800 328.332 C 294.800 327.930,295.025 327.600,295.300 327.600 C 295.852 327.599,298.000 325.871,298.000 325.428 C 298.000 325.274,299.440 323.699,301.200 321.927 C 302.960 320.155,304.400 318.540,304.400 318.338 C 304.400 318.137,304.766 317.573,305.214 317.086 C 306.380 315.817,308.000 313.251,308.000 312.671 C 308.000 312.399,308.360 311.917,308.800 311.600 C 309.240 311.283,309.600 310.703,309.600 310.312 C 309.600 309.920,309.780 309.600,310.000 309.600 C 310.220 309.600,310.400 309.240,310.400 308.800 C 310.400 308.360,310.580 308.000,310.800 308.000 C 311.020 308.000,311.200 307.730,311.200 307.400 C 311.200 307.070,311.380 306.800,311.600 306.800 C 311.820 306.800,312.000 306.440,312.000 306.000 C 312.000 305.560,312.180 305.200,312.400 305.200 C 312.620 305.200,312.800 304.660,312.800 304.000 C 312.800 303.340,312.980 302.800,313.200 302.800 C 313.420 302.800,313.600 302.440,313.600 302.000 C 313.600 301.560,313.780 301.200,314.000 301.200 C 314.220 301.200,314.400 300.742,314.400 300.183 C 314.400 299.624,314.760 298.780,315.200 298.308 C 315.640 297.836,316.000 297.033,316.000 296.525 C 316.000 296.016,316.180 295.600,316.400 295.600 C 316.620 295.600,316.800 294.801,316.800 293.824 C 316.800 292.847,316.980 291.936,317.200 291.800 C 317.420 291.664,317.600 290.764,317.600 289.800 C 317.600 288.836,317.780 287.936,318.000 287.800 C 318.241 287.651,318.400 284.863,318.400 280.776 C 318.400 276.525,318.251 274.000,318.000 274.000 C 317.772 274.000,317.600 272.811,317.600 271.233 C 317.600 269.712,317.459 268.407,317.288 268.333 C 317.116 268.260,316.673 267.570,316.305 266.800 L 315.634 265.400 316.868 265.271 C 317.546 265.200,318.295 265.335,318.531 265.571 C 319.097 266.137,333.200 266.165,333.200 265.600 C 333.200 265.375,334.325 265.200,335.776 265.200 C 337.193 265.200,338.464 265.020,338.600 264.800 C 338.736 264.580,339.467 264.400,340.224 264.400 C 340.981 264.400,341.600 264.220,341.600 264.000 C 341.600 263.780,342.140 263.600,342.800 263.600 C 343.460 263.600,344.000 263.420,344.000 263.200 C 344.000 262.980,344.540 262.800,345.200 262.800 C 345.860 262.800,346.400 262.620,346.400 262.400 C 346.400 262.180,347.019 262.000,347.776 262.000 C 348.533 262.000,349.264 261.820,349.400 261.600 C 349.536 261.380,349.997 261.200,350.424 261.200 C 350.851 261.200,351.200 261.020,351.200 260.800 C 351.200 260.580,351.639 260.400,352.176 260.400 C 352.713 260.400,353.264 260.220,353.400 260.000 C 353.536 259.780,353.997 259.600,354.424 259.600 C 354.851 259.600,355.200 259.420,355.200 259.200 C 355.200 258.980,355.560 258.800,356.000 258.800 C 356.440 258.800,356.800 258.623,356.800 258.408 C 356.800 258.192,357.250 257.902,357.800 257.764 C 358.350 257.626,358.800 257.375,358.800 257.207 C 358.800 257.038,359.318 256.796,359.952 256.670 C 360.585 256.543,361.382 256.160,361.723 255.820 C 362.064 255.479,362.560 255.200,362.825 255.200 C 363.089 255.200,363.597 254.884,363.953 254.497 C 364.309 254.111,365.095 253.540,365.700 253.230 C 366.305 252.919,366.800 252.515,366.800 252.332 C 366.800 252.150,367.088 252.000,367.440 252.000 C 367.791 252.000,368.583 251.460,369.200 250.800 C 369.817 250.140,370.511 249.600,370.744 249.600 C 370.977 249.600,372.030 248.678,373.084 247.550 C 374.138 246.423,375.990 244.533,377.200 243.349 C 381.557 239.089,382.400 238.199,382.400 237.863 C 382.400 237.675,382.940 237.017,383.600 236.400 C 384.260 235.783,384.800 235.031,384.800 234.728 C 384.800 234.425,385.160 233.917,385.600 233.600 C 386.040 233.283,386.400 232.743,386.400 232.400 C 386.400 232.057,386.760 231.517,387.200 231.200 C 387.640 230.883,388.000 230.303,388.000 229.912 C 388.000 229.520,388.180 229.200,388.400 229.200 C 388.620 229.200,388.800 228.840,388.800 228.400 C 388.800 227.960,388.980 227.600,389.200 227.600 C 389.420 227.600,389.600 227.240,389.600 226.800 C 389.600 226.360,389.762 226.000,389.960 226.000 C 390.159 226.000,390.654 225.191,391.060 224.201 C 391.467 223.212,391.935 222.402,392.100 222.401 C 392.265 222.401,392.400 222.040,392.400 221.600 C 392.400 221.160,392.580 220.800,392.800 220.800 C 393.020 220.800,393.200 220.260,393.200 219.600 C 393.200 218.940,393.380 218.400,393.600 218.400 C 393.820 218.400,394.000 218.040,394.000 217.600 C 394.000 217.160,394.180 216.800,394.400 216.800 C 394.620 216.800,394.800 216.080,394.800 215.200 C 394.800 214.320,394.980 213.600,395.200 213.600 C 395.420 213.600,395.600 213.060,395.600 212.400 C 395.600 211.740,395.780 211.200,396.000 211.200 C 396.220 211.200,396.400 210.210,396.400 209.000 C 396.400 207.790,396.580 206.800,396.800 206.800 C 397.022 206.800,397.200 205.734,397.200 204.403 C 397.200 202.440,397.345 201.916,398.000 201.507 C 399.246 200.729,399.246 184.800,398.000 184.800 C 397.276 184.800,397.200 184.533,397.200 182.000 C 397.200 180.400,397.029 179.200,396.800 179.200 C 396.580 179.200,396.400 178.390,396.400 177.400 C 396.400 176.410,396.220 175.600,396.000 175.600 C 395.780 175.600,395.600 175.060,395.600 174.400 C 395.600 173.740,395.420 173.200,395.200 173.200 C 394.980 173.200,394.800 172.480,394.800 171.600 C 394.800 170.720,394.620 170.000,394.400 170.000 C 394.180 170.000,394.000 169.640,394.000 169.200 C 394.000 168.760,393.820 168.400,393.600 168.400 C 393.380 168.400,393.200 167.950,393.200 167.400 C 393.200 166.850,393.020 166.400,392.800 166.400 C 392.580 166.400,392.386 166.085,392.369 165.700 C 392.351 165.315,391.820 164.190,391.189 163.200 C 390.557 162.210,389.725 160.770,389.341 160.000 C 388.956 159.230,388.317 158.309,387.920 157.953 C 387.524 157.597,387.200 157.052,387.200 156.741 C 387.200 156.431,386.840 155.917,386.400 155.600 C 385.960 155.283,385.600 154.786,385.600 154.495 C 385.600 153.686,375.157 143.507,373.395 142.600 C 372.541 142.160,371.311 141.305,370.662 140.700 C 370.013 140.095,369.238 139.600,368.941 139.600 C 368.643 139.600,368.400 139.420,368.400 139.200 C 368.400 138.980,368.040 138.800,367.600 138.800 C 367.160 138.800,366.800 138.620,366.800 138.400 C 366.800 138.180,366.440 138.000,366.000 138.000 C 365.560 138.000,365.200 137.820,365.200 137.600 C 365.200 137.380,364.840 137.200,364.400 137.200 C 363.960 137.200,363.600 137.020,363.600 136.800 C 363.600 136.580,363.240 136.400,362.800 136.400 C 362.360 136.400,362.000 136.220,362.000 136.000 C 362.000 135.780,361.460 135.600,360.800 135.600 C 360.140 135.600,359.600 135.420,359.600 135.200 C 359.600 134.980,359.240 134.800,358.800 134.800 C 358.360 134.800,358.000 134.620,358.000 134.400 C 358.000 134.180,357.460 134.000,356.800 134.000 C 356.140 134.000,355.600 133.820,355.600 133.600 C 355.600 133.365,354.200 133.200,352.200 133.200 C 350.200 133.200,348.800 133.035,348.800 132.800 C 348.800 132.551,346.467 132.400,342.600 132.400 C 339.190 132.400,336.400 132.560,336.400 132.756 C 336.400 132.952,335.185 133.131,333.701 133.153 C 332.217 133.175,330.942 133.375,330.868 133.597 C 330.794 133.819,330.208 134.000,329.567 134.000 C 328.925 134.000,328.400 134.180,328.400 134.400 C 328.400 134.620,327.950 134.800,327.400 134.800 C 326.850 134.800,326.400 134.980,326.400 135.200 C 326.400 135.420,326.040 135.600,325.600 135.600 C 325.160 135.600,324.800 135.780,324.800 136.000 C 324.800 136.220,324.440 136.400,324.000 136.400 C 323.560 136.400,323.200 136.580,323.200 136.800 C 323.200 137.020,322.840 137.200,322.400 137.200 C 321.960 137.200,321.600 137.380,321.600 137.600 C 321.600 137.820,321.280 138.000,320.888 138.000 C 320.497 138.000,319.917 138.360,319.600 138.800 C 319.283 139.240,318.718 139.600,318.345 139.600 C 317.972 139.600,317.596 139.812,317.510 140.071 C 317.271 140.786,316.497 140.126,315.765 138.583 C 315.404 137.822,314.949 137.200,314.754 137.200 C 314.559 137.200,314.400 136.840,314.400 136.400 C 314.400 135.960,314.220 135.600,314.000 135.600 C 313.780 135.600,313.600 135.280,313.600 134.888 C 313.600 134.497,313.240 133.917,312.800 133.600 C 312.360 133.283,312.000 132.743,312.000 132.400 C 312.000 132.057,311.640 131.517,311.200 131.200 C 310.760 130.883,310.400 130.375,310.400 130.072 C 310.400 129.769,309.860 129.017,309.200 128.400 C 308.540 127.783,308.000 127.126,308.000 126.939 C 308.000 126.753,307.280 125.812,306.400 124.849 C 305.520 123.887,304.800 122.942,304.800 122.749 C 304.800 122.557,304.530 122.400,304.200 122.400 C 303.870 122.400,303.600 122.143,303.600 121.828 C 303.600 121.170,295.745 113.168,292.192 110.207 C 290.876 109.110,289.323 107.715,288.740 107.107 C 288.156 106.498,287.503 106.000,287.288 106.000 C 287.073 106.000,286.155 105.280,285.248 104.400 C 284.341 103.520,283.329 102.800,283.000 102.800 C 282.670 102.800,282.400 102.650,282.400 102.468 C 282.400 102.285,281.905 101.881,281.300 101.570 C 280.695 101.260,279.909 100.689,279.553 100.303 C 279.197 99.916,278.652 99.600,278.341 99.600 C 278.031 99.600,277.517 99.240,277.200 98.800 C 276.883 98.360,276.369 98.000,276.059 98.000 C 275.748 98.000,275.199 97.660,274.839 97.245 C 274.479 96.829,273.513 96.109,272.692 95.645 C 271.871 95.180,270.525 94.418,269.700 93.952 C 268.875 93.485,267.845 92.855,267.411 92.552 C 266.977 92.248,266.302 92.000,265.911 92.000 C 265.520 92.000,265.200 91.820,265.200 91.600 C 265.200 91.380,264.840 91.200,264.400 91.200 C 263.960 91.200,263.600 91.020,263.600 90.800 C 263.600 90.580,263.240 90.400,262.800 90.400 C 262.360 90.400,262.000 90.220,262.000 90.000 C 262.000 89.780,261.640 89.600,261.200 89.600 C 260.760 89.600,260.400 89.420,260.400 89.200 C 260.400 88.980,260.040 88.800,259.600 88.800 C 259.160 88.800,258.800 88.654,258.800 88.475 C 258.800 88.296,258.170 87.902,257.400 87.600 C 256.630 87.298,256.000 86.904,256.000 86.725 C 256.000 86.546,255.640 86.400,255.200 86.400 C 254.760 86.400,254.400 86.220,254.400 86.000 C 254.400 85.780,253.860 85.600,253.200 85.600 C 252.540 85.600,252.000 85.420,252.000 85.200 C 252.000 84.980,251.640 84.800,251.200 84.800 C 250.760 84.800,250.400 84.620,250.400 84.400 C 250.400 84.180,250.040 84.000,249.600 84.000 C 249.160 84.000,248.800 83.820,248.800 83.600 C 248.800 83.380,248.440 83.200,248.000 83.200 C 247.560 83.200,247.200 83.020,247.200 82.800 C 247.200 82.580,246.660 82.400,246.000 82.400 C 245.340 82.400,244.800 82.264,244.800 82.097 C 244.800 81.704,241.896 80.800,240.630 80.800 C 240.089 80.800,239.536 80.620,239.400 80.400 C 239.264 80.180,238.724 80.000,238.200 80.000 C 237.676 80.000,237.136 79.820,237.000 79.600 C 236.864 79.380,236.324 79.200,235.800 79.200 C 235.276 79.200,234.736 79.020,234.600 78.800 C 234.464 78.580,233.924 78.400,233.400 78.400 C 232.876 78.400,232.336 78.220,232.200 78.000 C 232.064 77.780,231.333 77.600,230.576 77.600 C 229.314 77.600,229.200 77.501,229.200 76.400 C 229.200 75.740,229.380 75.200,229.600 75.200 C 229.826 75.200,230.000 74.067,230.000 72.600 C 230.000 71.133,230.174 70.000,230.400 70.000 C 230.646 70.000,230.800 68.008,230.800 64.824 C 230.800 61.804,230.633 59.544,230.400 59.400 C 230.180 59.264,230.000 58.364,230.000 57.400 C 230.000 56.436,229.820 55.536,229.600 55.400 C 229.380 55.264,229.200 54.663,229.200 54.065 C 229.200 53.435,228.863 52.733,228.400 52.400 C 227.960 52.083,227.600 51.503,227.600 51.112 C 227.600 50.720,227.420 50.400,227.200 50.400 C 226.980 50.400,226.800 49.860,226.800 49.200 C 226.800 48.540,226.620 48.000,226.400 48.000 C 226.180 48.000,226.000 47.550,226.000 47.000 C 226.000 46.450,225.864 46.000,225.698 46.000 C 225.531 46.000,225.156 45.460,224.864 44.799 C 224.097 43.067,220.800 42.602,220.800 44.227 C 220.800 44.542,220.620 44.800,220.400 44.800 C 220.178 44.800,220.000 45.859,220.000 47.176 C 220.000 48.483,219.820 49.664,219.600 49.800 C 219.380 49.936,219.200 50.667,219.200 51.424 C 219.200 52.181,219.020 52.800,218.800 52.800 C 218.580 52.800,218.400 53.340,218.400 54.000 C 218.400 54.660,218.220 55.200,218.000 55.200 C 217.780 55.200,217.600 55.560,217.600 56.000 C 217.600 56.440,217.420 56.800,217.200 56.800 C 216.980 56.800,216.800 57.160,216.800 57.600 C 216.800 58.040,216.620 58.400,216.400 58.400 C 216.180 58.400,216.000 58.670,216.000 59.000 C 216.000 59.330,215.850 59.600,215.668 59.600 C 215.485 59.600,215.080 60.095,214.768 60.700 C 214.455 61.305,213.885 62.149,213.500 62.575 C 213.115 63.002,212.800 63.507,212.800 63.697 C 212.800 63.888,212.261 64.619,211.602 65.322 C 210.943 66.025,210.403 66.825,210.402 67.100 C 210.401 67.375,210.232 67.600,210.027 67.600 C 209.822 67.600,209.539 67.961,209.400 68.401 C 208.972 69.750,208.002 68.328,207.986 66.329 C 207.969 64.105,206.213 60.486,204.310 58.753 C 203.920 58.397,203.600 57.893,203.600 57.632 C 203.600 57.013,195.285 48.800,194.658 48.800 C 194.393 48.800,193.917 48.440,193.600 48.000 C 193.283 47.560,192.718 47.200,192.345 47.200 C 191.972 47.200,191.607 47.064,191.533 46.898 C 191.407 46.613,187.857 44.808,184.800 43.475 C 183.558 42.933,180.670 42.398,175.300 41.713 C 174.233 41.577,173.600 41.292,173.600 40.948 C 173.600 40.000,171.112 40.329,170.100 41.410 M169.942 76.191 C 169.748 76.385,166.941 76.788,161.100 77.459 C 160.055 77.579,159.200 77.840,159.200 78.039 C 159.200 78.237,158.660 78.400,158.000 78.400 C 157.340 78.400,156.800 78.580,156.800 78.800 C 156.800 79.020,156.260 79.200,155.600 79.200 C 154.940 79.200,154.400 79.336,154.400 79.503 C 154.400 79.865,151.538 80.800,150.430 80.800 C 149.999 80.800,149.536 80.980,149.400 81.200 C 149.264 81.420,148.713 81.600,148.176 81.600 C 147.639 81.600,147.200 81.780,147.200 82.000 C 147.200 82.220,146.857 82.400,146.438 82.400 C 145.622 82.400,142.288 84.001,142.067 84.500 C 141.993 84.665,141.588 84.800,141.167 84.800 C 140.745 84.800,140.400 84.980,140.400 85.200 C 140.400 85.420,139.860 85.600,139.200 85.600 C 138.540 85.600,138.000 85.780,138.000 86.000 C 138.000 86.220,137.640 86.400,137.200 86.400 C 136.760 86.400,136.400 86.580,136.400 86.800 C 136.400 87.020,136.040 87.200,135.600 87.200 C 135.160 87.200,134.800 87.380,134.800 87.600 C 134.800 87.820,134.440 88.000,134.000 88.000 C 133.560 88.000,133.200 88.180,133.200 88.400 C 133.200 88.620,132.840 88.800,132.400 88.800 C 131.960 88.800,131.600 88.980,131.600 89.200 C 131.600 89.420,131.240 89.600,130.800 89.600 C 130.360 89.600,130.000 89.780,130.000 90.000 C 130.000 90.220,129.640 90.400,129.200 90.400 C 128.760 90.400,128.400 90.580,128.400 90.800 C 128.400 91.020,128.040 91.200,127.600 91.200 C 127.160 91.200,126.799 91.335,126.799 91.500 C 126.798 91.665,125.988 92.133,124.999 92.540 C 124.009 92.946,123.200 93.441,123.200 93.640 C 123.200 93.838,122.840 94.000,122.400 94.000 C 121.960 94.000,121.600 94.180,121.600 94.400 C 121.600 94.620,121.364 94.800,121.075 94.800 C 120.787 94.800,120.164 95.160,119.692 95.600 C 119.220 96.040,118.596 96.400,118.305 96.400 C 118.014 96.400,117.517 96.760,117.200 97.200 C 116.883 97.640,116.343 98.000,116.000 98.000 C 115.657 98.000,115.117 98.360,114.800 98.800 C 114.483 99.240,114.020 99.600,113.771 99.600 C 113.522 99.600,112.754 100.140,112.063 100.800 C 111.372 101.460,110.702 102.000,110.572 102.000 C 110.443 102.000,109.646 102.720,108.800 103.600 C 107.954 104.480,107.064 105.200,106.821 105.200 C 106.578 105.200,105.592 105.965,104.631 106.900 C 103.670 107.835,102.527 108.870,102.092 109.200 C 98.568 111.872,93.624 116.625,93.239 117.711 C 93.041 118.271,92.564 118.862,90.900 120.608 C 90.185 121.359,89.600 122.173,89.600 122.418 C 89.600 122.663,88.880 123.554,88.000 124.400 C 87.120 125.246,86.400 126.092,86.400 126.280 C 86.400 126.469,86.040 126.883,85.600 127.200 C 85.160 127.517,84.800 128.057,84.800 128.400 C 84.800 128.743,84.440 129.283,84.000 129.600 C 83.560 129.917,83.200 130.497,83.200 130.888 C 83.200 131.280,83.020 131.600,82.800 131.600 C 82.580 131.600,82.400 131.878,82.400 132.217 C 82.400 132.556,82.040 133.220,81.600 133.692 C 81.160 134.164,80.800 134.787,80.800 135.075 C 80.800 135.364,80.620 135.600,80.400 135.600 C 80.180 135.600,80.000 135.960,80.000 136.400 C 80.000 136.840,79.820 137.200,79.600 137.200 C 79.380 137.200,79.200 137.740,79.200 138.400 C 79.200 139.796,78.811 139.925,78.000 138.800 C 77.683 138.360,77.103 138.000,76.712 138.000 C 76.320 138.000,76.000 137.820,76.000 137.600 C 76.000 137.380,75.655 137.200,75.233 137.200 C 74.812 137.200,74.407 137.065,74.333 136.900 C 74.112 136.401,70.778 134.800,69.962 134.800 C 69.543 134.800,69.200 134.620,69.200 134.400 C 69.200 134.180,68.660 134.000,68.000 134.000 C 67.340 134.000,66.800 133.820,66.800 133.600 C 66.800 133.371,65.600 133.200,64.000 133.200 C 62.400 133.200,61.200 133.029,61.200 132.800 C 61.200 132.550,58.808 132.400,54.824 132.400 C 51.004 132.400,48.348 132.560,48.200 132.800 C 48.064 133.020,46.793 133.200,45.376 133.200 C 43.925 133.200,42.800 133.375,42.800 133.600 C 42.800 133.820,42.260 134.000,41.600 134.000 C 40.940 134.000,40.400 134.180,40.400 134.400 C 40.400 134.620,40.040 134.800,39.600 134.800 C 39.160 134.800,38.800 134.980,38.800 135.200 C 38.800 135.420,38.566 135.600,38.280 135.600 C 37.544 135.600,35.607 136.541,35.603 136.900 C 35.601 137.065,35.240 137.200,34.800 137.200 C 34.360 137.200,34.000 137.380,34.000 137.600 C 34.000 137.820,33.640 138.000,33.200 138.000 C 32.760 138.000,32.400 138.180,32.400 138.400 C 32.400 138.620,32.080 138.800,31.688 138.800 C 31.297 138.800,30.717 139.160,30.400 139.600 C 30.083 140.040,29.503 140.400,29.112 140.400 C 28.720 140.400,28.400 140.541,28.400 140.714 C 28.400 140.886,27.815 141.369,27.100 141.785 C 26.385 142.202,25.509 142.871,25.153 143.272 C 24.797 143.672,24.319 144.000,24.090 144.000 C 23.576 144.000,16.800 150.611,16.800 151.112 C 16.800 151.310,15.990 152.330,15.000 153.378 C 14.010 154.426,13.200 155.417,13.200 155.580 C 13.200 155.742,12.750 156.399,12.200 157.038 C 11.651 157.677,11.201 158.425,11.200 158.700 C 11.200 158.975,11.045 159.200,10.855 159.200 C 10.436 159.200,8.400 163.637,8.400 164.550 C 8.400 164.908,8.220 165.200,8.000 165.200 C 7.780 165.200,7.600 165.560,7.600 166.000 C 7.600 166.440,7.420 166.800,7.200 166.800 C 6.980 166.800,6.800 167.340,6.800 168.000 C 6.800 168.660,6.620 169.200,6.400 169.200 C 6.180 169.200,6.000 169.740,6.000 170.400 C 6.000 171.060,5.820 171.600,5.600 171.600 C 5.380 171.600,5.200 172.129,5.200 172.776 C 5.200 173.423,5.020 174.064,4.800 174.200 C 4.580 174.336,4.400 175.157,4.400 176.024 C 4.400 176.891,4.220 177.600,4.000 177.600 C 3.778 177.600,3.600 178.667,3.600 180.000 C 3.600 181.333,3.422 182.400,3.200 182.400 C 2.973 182.400,2.800 183.571,2.800 185.112 C 2.800 187.365,2.665 187.921,2.000 188.400 C 0.784 189.277,0.784 198.323,2.000 199.200 C 2.689 199.697,2.800 200.235,2.800 203.088 C 2.800 205.029,2.966 206.400,3.200 206.400 C 3.420 206.400,3.600 207.300,3.600 208.400 C 3.600 209.500,3.780 210.400,4.000 210.400 C 4.220 210.400,4.400 211.120,4.400 212.000 C 4.400 212.880,4.580 213.600,4.800 213.600 C 5.020 213.600,5.200 214.320,5.200 215.200 C 5.200 216.080,5.380 216.800,5.600 216.800 C 5.820 216.800,6.000 217.340,6.000 218.000 C 6.000 218.660,6.180 219.200,6.400 219.200 C 6.620 219.200,6.800 219.740,6.800 220.400 C 6.800 221.060,6.980 221.600,7.200 221.600 C 7.420 221.600,7.600 221.960,7.600 222.400 C 7.600 222.840,7.766 223.200,7.968 223.200 C 8.171 223.200,8.455 223.738,8.599 224.395 C 8.743 225.053,9.028 225.694,9.231 225.819 C 9.434 225.945,9.600 226.397,9.600 226.824 C 9.600 227.251,9.758 227.600,9.951 227.600 C 10.145 227.600,10.527 228.140,10.800 228.800 C 11.073 229.460,11.455 230.000,11.649 230.000 C 11.842 230.000,12.000 230.225,12.001 230.500 C 12.001 230.775,12.541 231.630,13.200 232.400 C 13.859 233.170,14.399 233.937,14.399 234.104 C 14.400 234.271,14.940 234.972,15.600 235.663 C 16.260 236.354,16.800 237.086,16.800 237.291 C 16.800 237.495,17.520 238.354,18.400 239.200 C 19.280 240.046,20.000 240.931,20.000 241.169 C 20.000 241.406,20.360 241.600,20.800 241.600 C 21.261 241.600,21.600 241.867,21.600 242.229 C 21.600 242.969,22.541 244.000,23.217 244.000 C 23.632 244.000,24.315 244.688,27.247 248.057 C 27.603 248.465,28.098 248.800,28.347 248.800 C 28.596 248.800,28.800 248.980,28.800 249.200 C 28.800 249.420,28.982 249.600,29.204 249.600 C 29.426 249.600,30.172 250.140,30.863 250.800 C 31.554 251.460,32.296 252.000,32.512 252.000 C 32.729 252.000,33.197 252.328,33.553 252.728 C 33.909 253.129,35.010 253.894,36.000 254.428 C 36.990 254.963,37.890 255.518,38.000 255.662 C 38.110 255.806,39.640 256.612,41.400 257.453 C 43.160 258.294,44.660 259.121,44.733 259.291 C 44.807 259.461,45.302 259.600,45.833 259.600 C 46.365 259.600,46.800 259.780,46.800 260.000 C 46.800 260.220,47.250 260.400,47.800 260.400 C 48.350 260.400,48.800 260.580,48.800 260.800 C 48.800 261.020,49.340 261.200,50.000 261.200 C 50.660 261.200,51.200 261.380,51.200 261.600 C 51.200 261.820,51.740 262.000,52.400 262.000 C 53.060 262.000,53.600 262.180,53.600 262.400 C 53.600 262.620,54.140 262.800,54.800 262.800 C 55.460 262.800,56.000 262.980,56.000 263.200 C 56.000 263.420,56.720 263.600,57.600 263.600 C 58.480 263.600,59.200 263.780,59.200 264.000 C 59.200 264.220,60.010 264.400,61.000 264.400 C 61.990 264.400,62.800 264.580,62.800 264.800 C 62.800 265.020,63.689 265.200,64.776 265.200 C 65.863 265.200,66.864 265.380,67.000 265.600 C 67.147 265.838,69.663 266.000,73.200 266.000 C 76.737 266.000,79.253 265.838,79.400 265.600 C 79.536 265.380,80.627 265.200,81.824 265.200 C 83.021 265.200,84.000 265.380,84.000 265.600 C 84.000 265.820,83.820 266.000,83.600 266.000 C 83.380 266.000,83.200 266.540,83.200 267.200 C 83.200 267.860,83.020 268.400,82.800 268.400 C 82.580 268.400,82.400 269.120,82.400 270.000 C 82.400 270.880,82.220 271.600,82.000 271.600 C 81.746 271.600,81.600 274.667,81.600 280.000 C 81.600 285.333,81.746 288.400,82.000 288.400 C 82.220 288.400,82.400 289.300,82.400 290.400 C 82.400 291.500,82.580 292.400,82.800 292.400 C 83.020 292.400,83.200 293.300,83.200 294.400 C 83.200 295.500,83.380 296.400,83.600 296.400 C 83.820 296.400,84.000 296.940,84.000 297.600 C 84.000 298.260,84.180 298.800,84.400 298.800 C 84.620 298.800,84.800 299.340,84.800 300.000 C 84.800 300.660,84.980 301.200,85.200 301.200 C 85.420 301.200,85.600 301.560,85.600 302.000 C 85.600 302.440,85.780 302.800,86.000 302.800 C 86.220 302.800,86.400 303.168,86.400 303.617 C 86.400 304.066,86.760 304.820,87.200 305.292 C 87.640 305.764,88.000 306.387,88.000 306.675 C 88.000 306.964,88.180 307.200,88.400 307.200 C 88.620 307.200,88.800 307.560,88.800 308.000 C 88.800 308.440,88.980 308.800,89.200 308.800 C 89.420 308.800,89.600 309.120,89.600 309.512 C 89.600 309.903,89.960 310.483,90.400 310.800 C 90.840 311.117,91.200 311.697,91.200 312.088 C 91.200 312.480,91.362 312.800,91.561 312.800 C 91.759 312.800,92.098 313.295,92.314 313.900 C 92.530 314.505,93.178 315.540,93.753 316.200 C 94.328 316.860,94.799 317.585,94.800 317.812 C 94.800 318.038,95.160 318.483,95.600 318.800 C 96.040 319.117,96.400 319.584,96.400 319.838 C 96.400 320.092,97.498 321.357,98.839 322.650 C 100.181 323.942,102.788 326.485,104.634 328.300 C 106.479 330.115,108.109 331.600,108.257 331.600 C 108.404 331.600,109.231 332.320,110.093 333.200 C 110.956 334.080,111.846 334.800,112.070 334.800 C 112.295 334.800,112.983 335.340,113.600 336.000 C 114.217 336.660,114.927 337.200,115.179 337.200 C 115.430 337.200,116.072 337.636,116.605 338.169 C 117.138 338.702,117.940 339.254,118.387 339.396 C 118.834 339.538,119.200 339.794,119.200 339.966 C 119.200 340.138,119.920 340.603,120.800 341.000 C 121.680 341.397,122.400 341.874,122.400 342.061 C 122.400 342.247,122.760 342.400,123.200 342.400 C 123.640 342.400,124.000 342.536,124.000 342.702 C 124.000 342.869,124.585 343.260,125.300 343.572 C 126.015 343.884,126.891 344.468,127.247 344.870 C 127.603 345.271,128.244 345.600,128.671 345.600 C 129.099 345.600,129.836 345.960,130.308 346.400 C 130.780 346.840,131.444 347.200,131.783 347.200 C 132.122 347.200,132.400 347.380,132.400 347.600 C 132.400 347.820,132.760 348.000,133.200 348.000 C 133.640 348.000,134.000 348.180,134.000 348.400 C 134.000 348.620,134.360 348.800,134.800 348.800 C 135.240 348.800,135.600 348.947,135.600 349.128 C 135.600 349.308,136.500 349.700,137.600 350.000 C 138.700 350.300,139.600 350.692,139.600 350.872 C 139.600 351.053,139.949 351.200,140.376 351.200 C 140.803 351.200,141.264 351.380,141.400 351.600 C 141.536 351.820,142.076 352.000,142.600 352.000 C 143.124 352.000,143.664 352.180,143.800 352.400 C 143.936 352.620,144.397 352.800,144.824 352.800 C 145.251 352.800,145.600 352.980,145.600 353.200 C 145.600 353.420,146.020 353.600,146.533 353.600 C 147.047 353.600,147.589 353.722,147.738 353.871 C 148.278 354.411,153.432 355.980,154.700 355.990 C 155.415 355.995,156.000 356.180,156.000 356.400 C 156.000 356.620,156.594 356.800,157.320 356.800 C 158.046 356.800,158.824 356.984,159.048 357.208 C 159.273 357.433,160.665 357.730,162.141 357.867 C 163.618 358.005,164.921 358.272,165.036 358.459 C 165.152 358.647,165.777 358.800,166.424 358.800 C 167.071 358.800,167.600 358.980,167.600 359.200 C 167.600 359.420,168.489 359.600,169.576 359.600 C 170.663 359.600,171.664 359.780,171.800 360.000 C 171.936 360.220,173.567 360.400,175.424 360.400 C 177.408 360.400,178.800 360.565,178.800 360.800 C 178.800 361.055,182.200 361.200,188.200 361.200 C 194.200 361.200,197.600 361.055,197.600 360.800 C 197.600 360.563,196.094 360.396,193.900 360.391 C 191.865 360.385,188.040 360.183,185.400 359.941 C 182.760 359.699,179.880 359.445,179.000 359.376 C 178.120 359.308,175.870 358.965,174.000 358.614 C 172.130 358.263,169.583 357.801,168.340 357.586 C 141.885 353.014,114.014 337.923,99.124 320.107 C 90.331 309.586,84.556 296.668,83.788 285.800 C 83.694 284.480,83.539 282.263,83.443 280.873 C 83.267 278.334,84.323 269.983,85.197 267.000 C 85.455 266.120,85.763 264.894,85.882 264.275 L 86.098 263.149 83.549 263.475 C 79.626 263.975,68.992 263.853,65.200 263.263 C 63.330 262.972,61.124 262.640,60.297 262.525 C 59.471 262.410,58.695 262.155,58.574 261.958 C 58.452 261.761,57.937 261.600,57.429 261.600 C 48.739 261.600,26.488 247.233,18.088 236.198 C 6.721 221.263,1.967 203.124,4.408 184.000 C 6.420 168.238,15.537 151.840,26.648 143.998 C 39.940 134.618,51.082 132.088,65.400 135.201 C 66.500 135.440,67.897 135.739,68.505 135.864 C 69.113 135.990,69.708 136.251,69.829 136.446 C 69.949 136.641,70.352 136.803,70.724 136.807 C 71.096 136.812,72.637 137.442,74.148 138.207 C 75.660 138.973,77.062 139.600,77.265 139.600 C 77.468 139.600,78.023 139.963,78.499 140.406 C 79.688 141.515,79.661 141.543,82.205 136.600 C 83.451 134.180,84.794 131.840,85.189 131.400 C 85.583 130.960,86.183 130.052,86.520 129.383 C 93.339 115.871,118.118 96.171,139.800 87.022 C 141.780 86.187,143.940 85.275,144.600 84.995 C 149.099 83.091,154.042 81.512,160.200 80.011 C 167.873 78.140,168.062 78.096,169.800 77.733 C 170.799 77.525,171.400 77.177,171.400 76.805 C 171.400 76.214,170.359 75.775,169.942 76.191 M159.600 191.350 C 152.400 193.332,148.198 198.661,148.206 205.800 C 148.225 223.861,173.648 226.295,177.359 208.591 C 179.539 198.193,169.643 188.585,159.600 191.350 M242.800 191.542 C 234.101 193.408,228.782 203.324,232.027 211.623 C 236.256 222.439,251.145 224.089,257.620 214.461 C 264.960 203.549,255.443 188.831,242.800 191.542 M181.281 239.953 C 178.121 241.066,176.952 243.186,178.183 245.567 C 179.612 248.331,183.239 249.245,190.497 248.670 C 194.878 248.323,195.387 248.360,198.066 249.221 C 200.910 250.136,200.954 250.138,202.769 249.408 C 204.810 248.587,205.981 248.534,211.867 248.997 C 219.820 249.622,224.800 247.539,224.800 243.587 C 224.800 239.569,216.663 237.985,206.743 240.072 C 201.723 241.128,201.382 241.134,197.600 240.243 C 192.983 239.154,184.000 238.995,181.281 239.953 M128.581 281.858 C 126.930 283.640,127.553 285.188,131.508 289.131 C 143.787 301.373,160.155 309.390,184.600 315.138 C 200.763 318.937,230.229 318.967,246.600 315.200 C 262.422 311.559,264.800 310.673,264.800 308.416 C 264.800 305.374,263.332 305.028,257.877 306.783 C 255.855 307.434,252.580 308.343,250.600 308.804 C 248.620 309.265,246.370 309.799,245.600 309.991 C 244.830 310.183,242.760 310.540,241.000 310.785 C 239.240 311.031,236.900 311.402,235.800 311.611 C 228.033 313.088,203.899 313.089,195.200 311.613 C 193.990 311.407,191.560 311.037,189.800 310.790 C 188.040 310.542,185.970 310.182,185.200 309.989 C 178.562 308.326,176.665 307.824,174.400 307.132 C 171.962 306.386,168.418 305.142,166.600 304.392 C 166.160 304.211,164.990 303.736,164.000 303.338 C 153.181 298.986,140.118 290.389,133.779 283.450 C 131.065 280.478,130.126 280.191,128.581 281.858 " stroke="none" fill="#423125" fill-rule="evenodd"></path><path id="path3" d="M153.400 173.051 C 140.428 175.073,131.800 185.518,131.800 199.200 C 131.800 230.175,175.377 236.241,183.578 206.408 C 188.588 188.182,172.242 170.114,153.400 173.051 M241.722 173.192 C 217.586 178.353,213.282 212.124,235.400 222.802 C 253.485 231.533,273.682 218.685,273.760 198.400 C 273.821 182.542,257.617 169.793,241.722 173.192 M167.105 190.756 C 167.487 190.952,168.700 191.537,169.800 192.055 C 179.195 196.482,181.249 209.094,173.801 216.623 C 161.976 228.579,142.554 215.916,148.469 200.107 C 149.314 197.850,153.618 192.800,154.697 192.800 C 154.974 192.800,155.200 192.641,155.200 192.447 C 155.200 192.252,155.515 191.986,155.900 191.856 C 156.285 191.725,157.230 191.365,158.000 191.057 C 159.582 190.422,166.039 190.209,167.105 190.756 M248.772 190.855 C 252.519 192.050,253.865 192.762,255.990 194.669 C 266.325 203.949,259.569 221.287,245.600 221.330 C 231.435 221.374,224.983 204.114,235.638 194.679 C 237.901 192.676,238.751 192.214,242.600 190.896 C 244.256 190.329,247.063 190.311,248.772 190.855 M128.719 287.800 C 129.220 288.750,133.520 293.031,133.716 292.777 C 133.791 292.679,132.602 291.340,131.075 289.800 C 129.547 288.260,128.487 287.360,128.719 287.800 M176.705 314.683 C 177.202 314.779,177.922 314.775,178.305 314.675 C 178.687 314.575,178.280 314.496,177.400 314.501 C 176.520 314.505,176.207 314.587,176.705 314.683 M242.100 317.076 C 242.485 317.176,243.115 317.176,243.500 317.076 C 243.885 316.975,243.570 316.893,242.800 316.893 C 242.030 316.893,241.715 316.975,242.100 317.076 M192.305 317.883 C 192.802 317.979,193.522 317.975,193.905 317.875 C 194.287 317.775,193.880 317.696,193.000 317.701 C 192.120 317.705,191.807 317.787,192.305 317.883 M237.700 317.876 C 238.085 317.976,238.715 317.976,239.100 317.876 C 239.485 317.775,239.170 317.693,238.400 317.693 C 237.630 317.693,237.315 317.775,237.700 317.876 M196.800 318.400 C 197.588 318.909,198.515 318.909,198.200 318.400 C 198.064 318.180,197.558 318.003,197.076 318.006 C 196.364 318.011,196.312 318.085,196.800 318.400 M233.400 318.400 C 233.264 318.620,233.423 318.800,233.753 318.800 C 234.083 318.800,234.464 318.620,234.600 318.400 C 234.736 318.180,234.577 318.000,234.247 318.000 C 233.917 318.000,233.536 318.180,233.400 318.400 M212.900 319.497 C 214.605 319.572,217.395 319.572,219.100 319.497 C 220.805 319.422,219.410 319.361,216.000 319.361 C 212.590 319.361,211.195 319.422,212.900 319.497 " stroke="none" fill="#fbf8f2" fill-rule="evenodd"></path><path id="path4" d="M148.400 138.659 C 143.166 139.445,141.439 139.910,136.600 141.839 C 131.211 143.986,123.245 148.705,123.212 149.770 C 123.205 149.973,123.605 149.775,124.100 149.330 C 126.703 146.988,132.537 143.781,137.742 141.832 C 144.553 139.281,146.404 139.000,156.400 139.000 C 161.350 139.000,164.410 138.883,163.200 138.740 C 160.870 138.464,150.091 138.405,148.400 138.659 M166.800 139.661 C 171.365 141.068,174.592 141.941,174.727 141.806 C 174.929 141.605,168.621 139.726,166.800 139.445 L 165.400 139.229 166.800 139.661 M238.800 139.842 C 233.267 140.856,230.879 141.426,227.800 142.468 C 224.090 143.724,218.400 146.194,218.400 146.548 C 218.400 146.658,219.705 146.151,221.300 145.422 C 244.043 135.026,269.147 140.128,283.231 158.008 C 285.556 160.959,286.463 161.925,285.760 160.700 C 281.770 153.744,269.993 144.896,260.967 142.072 C 254.847 140.158,243.378 139.004,238.800 139.842 M178.051 143.342 C 181.389 144.799,182.924 145.679,186.700 148.298 C 188.075 149.252,189.197 149.890,189.194 149.716 C 189.175 148.775,177.148 141.990,175.526 142.005 C 175.237 142.008,176.373 142.609,178.051 143.342 M214.002 149.198 C 209.665 152.217,204.419 156.744,202.744 158.913 C 201.831 160.095,202.213 159.814,204.020 157.976 C 207.281 154.659,210.011 152.412,214.342 149.483 C 218.130 146.921,218.294 146.793,217.767 146.816 C 217.565 146.825,215.871 147.897,214.002 149.198 M120.110 152.300 C 111.436 160.550,104.800 175.348,104.209 187.760 L 104.036 191.400 104.578 187.000 C 106.319 172.867,111.033 162.395,119.748 153.300 C 123.418 149.470,123.592 148.988,120.110 152.300 M194.148 154.505 C 196.635 157.008,199.008 159.629,199.421 160.328 C 200.186 161.622,200.941 161.942,201.417 161.173 C 201.564 160.934,201.433 160.802,201.117 160.873 C 200.807 160.943,199.946 160.280,199.204 159.400 C 197.066 156.865,192.738 152.450,191.113 151.146 C 190.295 150.490,191.660 152.001,194.148 154.505 M51.600 158.228 C 20.471 163.652,10.589 208.983,35.097 233.934 C 40.486 239.420,53.491 247.843,54.702 246.631 C 54.827 246.506,54.369 246.208,53.683 245.969 C 38.019 240.509,25.282 224.689,22.430 207.154 C 17.387 176.146,42.149 150.234,66.722 160.804 C 69.092 161.824,69.154 162.045,68.008 165.376 C 66.565 169.571,64.758 179.746,64.849 183.165 C 64.880 184.340,65.085 183.456,65.419 180.705 C 66.137 174.792,67.366 168.706,68.553 165.181 C 69.693 161.795,69.624 161.595,66.875 160.343 C 62.969 158.563,55.562 157.538,51.600 158.228 M338.213 158.635 C 334.055 159.567,328.000 162.800,330.413 162.800 C 330.626 162.800,330.800 162.623,330.800 162.407 C 330.800 160.708,338.388 158.659,344.600 158.681 C 361.487 158.740,374.244 171.491,377.535 191.600 C 377.804 193.244,377.908 193.467,377.947 192.483 C 378.084 189.060,375.697 181.252,372.989 176.266 C 365.677 162.801,351.559 155.644,338.213 158.635 M286.492 162.400 C 289.573 167.655,291.840 173.012,293.006 177.800 C 293.167 178.460,293.374 178.799,293.465 178.553 C 293.980 177.169,288.930 165.050,286.734 162.400 L 285.905 161.400 286.492 162.400 M330.400 163.496 C 330.400 163.685,330.559 164.011,330.753 164.220 C 330.947 164.429,331.391 165.749,331.740 167.153 C 332.357 169.641,332.800 170.667,332.800 169.610 C 332.800 168.641,331.180 163.635,330.788 163.392 C 330.575 163.261,330.400 163.307,330.400 163.496 M332.979 171.800 C 333.140 172.680,333.503 174.660,333.786 176.200 C 334.068 177.740,334.322 178.521,334.350 177.935 C 334.411 176.633,333.318 170.776,332.951 170.441 C 332.806 170.309,332.818 170.920,332.979 171.800 M293.856 181.000 C 293.989 182.100,294.335 184.620,294.624 186.600 L 295.151 190.200 294.949 187.000 C 294.837 185.240,294.491 182.720,294.180 181.400 C 293.623 179.040,293.618 179.033,293.856 181.000 M334.470 180.200 C 334.464 180.860,334.603 182.210,334.780 183.200 L 335.100 185.000 335.110 183.000 C 335.116 181.900,334.976 180.550,334.800 180.000 C 334.488 179.025,334.479 179.030,334.470 180.200 M64.259 187.300 C 63.934 190.008,63.990 203.197,64.337 205.800 C 64.484 206.900,64.603 202.715,64.602 196.500 C 64.601 190.285,64.580 185.200,64.556 185.200 C 64.531 185.200,64.398 186.145,64.259 187.300 M335.383 197.000 C 335.392 203.600,335.513 207.830,335.653 206.400 C 335.988 202.969,335.978 190.890,335.637 187.600 C 335.489 186.170,335.375 190.400,335.383 197.000 M161.907 190.690 C 162.626 190.779,163.706 190.777,164.307 190.686 C 164.908 190.595,164.320 190.522,163.000 190.524 C 161.680 190.526,161.188 190.601,161.907 190.690 M295.279 193.723 C 295.236 195.661,295.022 198.541,294.805 200.123 C 293.699 208.169,293.438 209.673,292.569 213.000 C 292.052 214.980,291.262 217.665,290.813 218.966 C 289.875 221.687,289.965 222.474,290.921 219.909 C 293.656 212.571,295.830 199.902,295.505 193.200 L 295.359 190.200 295.279 193.723 M167.184 191.409 C 168.165 191.715,169.029 191.904,169.104 191.829 C 169.309 191.624,166.777 190.796,166.040 190.827 C 165.688 190.841,166.203 191.104,167.184 191.409 M244.291 191.089 C 245.001 191.177,246.261 191.179,247.091 191.092 C 247.921 191.005,247.340 190.933,245.800 190.931 C 244.260 190.929,243.581 191.000,244.291 191.089 M170.886 193.000 C 171.695 193.550,172.499 194.000,172.672 194.000 C 172.844 194.000,172.323 193.550,171.514 193.000 C 170.705 192.450,169.901 192.000,169.728 192.000 C 169.556 192.000,170.077 192.450,170.886 193.000 M152.539 194.646 L 150.600 196.492 152.400 194.990 C 154.815 192.974,154.999 192.800,154.719 192.800 C 154.586 192.800,153.605 193.631,152.539 194.646 M234.927 195.700 C 232.982 197.697,231.195 200.569,231.204 201.684 C 231.206 201.968,231.666 201.210,232.226 200.000 C 232.786 198.790,234.173 196.855,235.308 195.700 C 236.444 194.545,237.283 193.600,237.173 193.600 C 237.063 193.600,236.052 194.545,234.927 195.700 M255.983 195.300 C 256.964 196.345,257.819 197.200,257.883 197.200 C 258.184 197.200,257.866 196.841,256.100 195.183 L 254.200 193.400 255.983 195.300 M378.150 198.200 C 378.151 200.620,378.216 201.558,378.296 200.285 C 378.376 199.012,378.375 197.032,378.294 195.885 C 378.214 194.738,378.149 195.780,378.150 198.200 M104.052 197.149 C 103.892 203.731,108.777 223.069,111.289 225.800 C 111.649 226.191,111.121 224.738,109.072 219.699 C 107.096 214.839,105.275 206.397,104.433 198.200 C 104.139 195.333,104.099 195.224,104.052 197.149 M175.725 197.968 C 176.200 198.835,176.650 199.484,176.724 199.409 C 176.918 199.216,175.677 196.895,175.234 196.621 C 175.029 196.494,175.250 197.100,175.725 197.968 M147.829 202.229 C 147.681 202.815,147.638 203.372,147.732 203.466 C 147.827 203.560,148.024 203.158,148.171 202.571 C 148.319 201.985,148.362 201.428,148.268 201.334 C 148.173 201.240,147.976 201.642,147.829 202.229 M230.650 203.650 C 230.344 205.179,230.389 207.876,230.740 209.124 C 230.883 209.632,231.000 208.327,231.000 206.224 C 231.000 201.938,230.997 201.915,230.650 203.650 M377.449 205.200 C 377.062 208.418,376.272 211.872,375.113 215.400 C 374.634 216.859,374.426 217.358,372.649 221.300 C 371.881 223.005,371.340 224.400,371.447 224.400 C 372.994 224.400,378.446 206.818,377.914 203.543 C 377.830 203.025,377.620 203.770,377.449 205.200 M260.534 206.000 C 260.534 207.650,260.605 208.325,260.691 207.500 C 260.778 206.675,260.778 205.325,260.691 204.500 C 260.605 203.675,260.534 204.350,260.534 206.000 M178.101 205.800 C 178.105 206.680,178.187 206.993,178.283 206.495 C 178.379 205.998,178.375 205.278,178.275 204.895 C 178.175 204.513,178.096 204.920,178.101 205.800 M64.886 209.800 C 64.871 210.900,65.003 212.610,65.180 213.600 L 65.500 215.400 65.510 213.800 C 65.516 212.920,65.384 211.210,65.217 210.000 L 64.913 207.800 64.886 209.800 M147.668 208.400 C 147.688 209.439,148.318 211.146,148.332 210.200 C 148.338 209.760,148.189 209.040,148.000 208.600 C 147.789 208.110,147.661 208.032,147.668 208.400 M334.637 211.924 C 334.459 213.532,334.409 214.942,334.524 215.057 C 334.818 215.351,335.308 211.151,335.117 209.971 C 335.031 209.437,334.815 210.316,334.637 211.924 M148.400 211.353 C 148.400 211.782,149.590 214.000,149.821 214.000 C 149.931 214.000,149.723 213.415,149.359 212.700 C 148.617 211.240,148.400 210.936,148.400 211.353 M176.619 211.940 C 176.480 212.380,175.901 213.423,175.334 214.259 C 174.760 215.105,174.604 215.529,174.981 215.216 C 175.765 214.565,177.348 211.614,177.064 211.331 C 176.959 211.226,176.759 211.500,176.619 211.940 M232.600 214.000 C 232.941 214.660,233.311 215.200,233.421 215.200 C 233.531 215.200,233.341 214.660,233.000 214.000 C 232.659 213.340,232.289 212.800,232.179 212.800 C 232.069 212.800,232.259 213.340,232.600 214.000 M256.801 215.798 C 256.286 216.348,255.939 216.864,256.032 216.946 C 256.124 217.028,256.619 216.578,257.130 215.947 C 258.276 214.535,258.074 214.444,256.801 215.798 M65.644 216.328 C 65.586 217.550,66.943 224.376,67.090 223.600 C 67.152 223.270,66.862 221.290,66.445 219.200 C 66.029 217.110,65.668 215.818,65.644 216.328 M151.200 215.961 C 151.200 216.355,152.763 217.635,154.900 218.993 C 155.505 219.377,156.000 219.596,156.000 219.479 C 156.000 219.361,155.353 218.865,154.562 218.377 C 153.771 217.888,152.691 217.055,152.162 216.526 C 151.633 215.997,151.200 215.743,151.200 215.961 M233.600 215.725 C 233.600 215.794,234.185 216.379,234.900 217.025 L 236.200 218.200 235.025 216.900 C 233.930 215.688,233.600 215.416,233.600 215.725 M333.654 218.400 C 333.368 220.050,333.036 221.940,332.916 222.600 C 332.796 223.260,332.808 223.698,332.943 223.573 C 333.349 223.196,334.467 217.275,334.315 216.304 C 334.237 215.807,333.939 216.750,333.654 218.400 M171.218 218.250 C 169.207 219.677,169.169 219.853,171.100 218.789 C 172.035 218.274,172.800 217.706,172.800 217.526 C 172.800 217.113,172.854 217.088,171.218 218.250 M159.515 220.872 C 159.892 221.021,161.370 221.144,162.800 221.144 C 164.230 221.144,165.708 221.021,166.085 220.872 C 166.462 220.722,164.984 220.600,162.800 220.600 C 160.616 220.600,159.138 220.722,159.515 220.872 M241.200 220.794 C 241.530 221.011,242.235 221.191,242.767 221.194 C 244.051 221.202,243.725 220.975,242.000 220.658 C 241.015 220.477,240.778 220.518,241.200 220.794 M248.600 220.800 C 247.493 221.082,247.477 221.109,248.400 221.147 C 248.950 221.169,249.670 221.013,250.000 220.800 C 250.681 220.360,250.329 220.360,248.600 220.800 M289.086 223.617 C 288.714 224.566,288.486 225.419,288.581 225.514 C 288.824 225.758,290.046 222.738,289.891 222.274 C 289.821 222.064,289.459 222.668,289.086 223.617 M332.209 225.200 C 330.894 231.128,326.688 241.334,323.351 246.696 C 321.204 250.146,321.237 250.243,324.698 250.586 C 328.291 250.943,341.001 249.268,340.268 248.535 C 340.172 248.439,338.253 248.729,336.004 249.180 C 332.343 249.914,322.000 250.394,322.000 249.829 C 322.000 249.736,322.858 248.251,323.908 246.529 C 327.539 240.571,333.293 226.031,332.698 224.314 C 332.600 224.031,332.380 224.430,332.209 225.200 M67.207 224.800 C 67.201 225.564,69.612 233.390,70.904 236.800 C 72.348 240.610,75.830 247.524,76.838 248.580 C 78.415 250.235,69.960 250.500,63.259 249.005 C 61.641 248.645,60.237 248.430,60.140 248.527 C 59.295 249.371,74.305 250.912,76.937 250.251 C 77.910 250.007,78.047 249.068,77.207 248.400 C 76.935 248.184,73.600 242.429,73.600 242.177 C 73.600 242.093,73.125 240.986,72.545 239.717 C 71.359 237.125,68.003 227.045,67.994 226.048 C 67.985 225.155,67.214 223.931,67.207 224.800 M368.925 227.917 C 363.511 236.090,352.569 244.271,342.818 247.437 C 341.618 247.827,340.830 248.210,341.066 248.289 C 342.428 248.743,351.633 244.235,356.920 240.525 C 362.271 236.771,372.122 225.988,371.118 224.985 C 371.035 224.902,370.049 226.222,368.925 227.917 M288.000 226.233 C 288.000 226.609,284.761 232.521,282.469 236.327 C 281.765 237.497,281.354 238.352,281.555 238.228 C 282.510 237.638,288.634 226.500,288.227 226.094 C 288.102 225.969,288.000 226.032,288.000 226.233 M111.600 226.575 C 111.600 227.100,114.379 231.759,116.058 234.049 C 118.408 237.255,118.405 236.883,116.100 238.468 C 112.257 241.110,108.483 244.903,104.754 249.869 C 102.193 253.280,98.981 258.714,99.324 259.057 C 99.450 259.183,99.821 258.645,100.149 257.860 C 102.319 252.668,111.781 241.509,116.499 238.579 C 118.832 237.131,118.846 237.414,116.248 233.687 C 115.064 231.989,113.621 229.655,113.041 228.500 C 112.123 226.673,111.600 225.974,111.600 226.575 M181.800 239.210 C 181.266 239.447,181.598 239.486,182.800 239.327 C 183.790 239.196,184.675 239.024,184.767 238.944 C 185.114 238.643,182.564 238.872,181.800 239.210 M192.100 239.076 C 192.485 239.176,193.115 239.176,193.500 239.076 C 193.885 238.975,193.570 238.893,192.800 238.893 C 192.030 238.893,191.715 238.975,192.100 239.076 M209.505 239.083 C 210.002 239.179,210.722 239.175,211.105 239.075 C 211.487 238.975,211.080 238.896,210.200 238.901 C 209.320 238.905,209.007 238.987,209.505 239.083 M219.600 239.200 C 220.968 239.638,222.019 239.638,221.000 239.200 C 220.560 239.011,219.840 238.862,219.400 238.868 C 218.757 238.877,218.796 238.943,219.600 239.200 M196.833 239.743 C 196.925 239.821,197.630 240.001,198.400 240.142 C 199.385 240.323,199.622 240.282,199.200 240.006 C 198.658 239.650,196.437 239.403,196.833 239.743 M204.000 240.006 C 203.578 240.282,203.815 240.323,204.800 240.142 C 206.525 239.825,206.851 239.598,205.567 239.606 C 205.035 239.609,204.330 239.789,204.000 240.006 M222.400 240.020 C 223.787 240.961,224.578 241.235,223.600 240.436 C 223.050 239.986,222.420 239.617,222.200 239.615 C 221.980 239.613,222.070 239.796,222.400 240.020 M178.029 241.454 C 176.700 243.144,176.912 245.285,178.574 246.947 C 179.820 248.194,182.596 249.537,183.029 249.104 C 183.126 249.007,182.493 248.715,181.624 248.454 C 178.068 247.389,176.486 243.924,178.429 241.454 C 178.885 240.874,179.168 240.400,179.058 240.400 C 178.948 240.400,178.485 240.874,178.029 241.454 M279.600 241.580 C 279.600 241.781,280.005 242.074,280.500 242.229 C 281.682 242.601,285.720 245.350,287.662 247.103 C 288.508 247.868,289.200 248.358,289.200 248.193 C 289.200 247.765,287.362 246.193,284.769 244.404 C 281.716 242.297,279.600 241.141,279.600 241.580 M224.670 245.010 C 224.521 245.445,224.291 246.070,224.158 246.400 C 224.026 246.730,224.219 246.590,224.588 246.090 C 224.958 245.589,225.188 244.964,225.100 244.700 C 225.010 244.431,224.822 244.567,224.670 245.010 M55.200 246.968 C 55.200 247.240,59.234 248.499,59.441 248.292 C 59.546 248.188,58.735 247.809,57.640 247.451 C 55.539 246.764,55.200 246.697,55.200 246.968 M192.000 248.825 C 191.012 249.051,191.323 249.084,193.054 248.939 C 194.840 248.788,195.842 248.905,196.734 249.366 C 197.409 249.715,198.194 249.996,198.480 249.991 C 198.766 249.986,198.215 249.626,197.256 249.191 C 195.437 248.366,194.345 248.289,192.000 248.825 M206.000 248.782 C 206.330 249.005,206.945 249.191,207.367 249.194 C 208.390 249.202,208.071 248.973,206.600 248.644 C 205.724 248.448,205.562 248.485,206.000 248.782 M289.619 248.420 C 289.609 248.541,290.691 249.801,292.026 251.220 C 295.051 254.438,298.029 258.726,300.484 263.400 C 301.524 265.380,302.380 266.841,302.387 266.647 C 302.468 264.382,289.804 246.303,289.619 248.420 M185.700 249.491 C 186.525 249.578,187.875 249.578,188.700 249.491 C 189.525 249.405,188.850 249.334,187.200 249.334 C 185.550 249.334,184.875 249.405,185.700 249.491 M212.093 249.644 C 213.793 249.818,215.953 249.829,216.893 249.668 C 218.096 249.462,217.184 249.368,213.800 249.351 C 209.170 249.328,209.109 249.338,212.093 249.644 M200.105 250.287 C 200.714 250.379,201.614 250.377,202.105 250.282 C 202.597 250.187,202.100 250.111,201.000 250.114 C 199.900 250.117,199.497 250.195,200.105 250.287 M98.201 261.057 C 97.212 263.419,95.998 267.258,96.015 267.966 C 96.024 268.315,96.532 267.070,97.144 265.200 C 97.756 263.330,98.484 261.380,98.761 260.866 C 99.038 260.352,99.171 259.837,99.056 259.723 C 98.941 259.608,98.556 260.208,98.201 261.057 M95.449 269.415 C 95.312 269.773,95.218 270.546,95.240 271.133 C 95.273 271.991,95.352 271.895,95.646 270.640 C 96.022 269.039,95.895 268.253,95.449 269.415 M303.214 269.500 C 303.253 270.328,304.747 274.896,304.772 274.262 C 304.804 273.426,303.635 269.200,303.372 269.200 C 303.277 269.200,303.206 269.335,303.214 269.500 M94.657 273.900 C 93.941 278.232,94.793 291.003,95.864 291.974 C 96.001 292.098,96.011 291.750,95.888 291.200 C 94.996 287.232,94.705 283.394,94.900 278.181 C 95.125 272.185,95.077 271.355,94.657 273.900 M305.000 282.858 C 305.000 287.094,305.114 290.028,305.253 289.380 C 305.587 287.820,305.593 277.256,305.260 276.079 C 305.117 275.572,305.000 278.623,305.000 282.858 M131.400 280.881 C 131.840 281.132,133.640 282.809,135.400 284.607 C 137.948 287.211,138.120 287.340,136.242 285.239 C 133.090 281.712,131.688 280.398,131.094 280.412 C 130.822 280.419,130.960 280.630,131.400 280.881 M127.685 282.013 C 127.132 282.898,127.038 284.653,127.528 284.955 C 127.708 285.067,127.777 284.626,127.682 283.975 C 127.586 283.325,127.734 282.520,128.011 282.187 C 128.288 281.853,128.437 281.503,128.342 281.409 C 128.247 281.314,127.952 281.586,127.685 282.013 M304.222 292.222 C 304.072 293.025,304.038 293.772,304.148 293.882 C 304.258 293.992,304.472 293.425,304.622 292.622 C 304.773 291.819,304.806 291.073,304.696 290.963 C 304.586 290.853,304.373 291.419,304.222 292.222 M132.833 291.300 C 132.925 291.355,133.540 291.850,134.200 292.400 L 135.400 293.400 134.430 292.300 C 133.897 291.695,133.282 291.200,133.064 291.200 C 132.845 291.200,132.742 291.245,132.833 291.300 M96.030 293.034 C 95.990 293.613,97.579 298.441,98.059 299.200 C 98.334 299.635,98.368 299.544,98.181 298.866 C 97.649 296.928,96.058 292.618,96.030 293.034 M303.429 295.429 C 303.281 296.015,303.251 296.584,303.361 296.694 C 303.471 296.804,303.681 296.415,303.829 295.829 C 303.976 295.242,304.006 294.673,303.896 294.563 C 303.786 294.453,303.576 294.842,303.429 295.429 M138.144 295.509 C 138.460 296.021,140.800 297.753,140.800 297.475 C 140.800 297.376,140.139 296.791,139.332 296.175 C 138.524 295.559,137.989 295.259,138.144 295.509 M149.200 295.379 C 149.200 295.489,149.740 295.859,150.400 296.200 C 151.060 296.541,151.600 296.731,151.600 296.621 C 151.600 296.511,151.060 296.141,150.400 295.800 C 149.740 295.459,149.200 295.269,149.200 295.379 M301.504 300.704 C 299.907 304.464,299.737 305.824,301.300 302.338 C 302.791 299.011,303.322 297.589,303.141 297.408 C 303.049 297.316,302.313 298.799,301.504 300.704 M98.434 300.200 C 98.434 300.420,98.778 301.230,99.200 302.000 C 99.622 302.770,99.966 303.220,99.966 303.000 C 99.966 302.780,99.622 301.970,99.200 301.200 C 98.778 300.430,98.434 299.980,98.434 300.200 M144.800 300.179 C 144.800 300.289,145.340 300.659,146.000 301.000 C 146.660 301.341,147.200 301.531,147.200 301.421 C 147.200 301.311,146.660 300.941,146.000 300.600 C 145.340 300.259,144.800 300.069,144.800 300.179 M148.400 302.367 C 149.363 303.152,150.000 303.408,150.000 303.010 C 150.000 302.906,149.415 302.535,148.700 302.186 L 147.400 301.552 148.400 302.367 M162.032 302.158 C 163.438 302.970,169.265 305.268,169.450 305.083 C 169.532 305.001,167.848 304.229,165.707 303.367 C 161.105 301.514,160.665 301.369,162.032 302.158 M298.986 306.100 L 298.352 307.400 299.167 306.400 C 299.952 305.437,300.208 304.800,299.810 304.800 C 299.706 304.800,299.335 305.385,298.986 306.100 M101.386 306.300 C 101.735 307.015,102.106 307.600,102.210 307.600 C 102.608 307.600,102.352 306.963,101.567 306.000 L 100.752 305.000 101.386 306.300 M255.656 306.859 C 254.917 307.072,254.387 307.320,254.479 307.412 C 254.681 307.614,257.600 306.837,257.600 306.581 C 257.600 306.346,257.282 306.391,255.656 306.859 M265.114 307.997 C 265.239 308.849,265.015 309.422,264.260 310.176 C 263.697 310.739,263.395 311.200,263.589 311.200 C 264.739 311.200,266.192 307.613,265.272 307.045 C 265.092 306.933,265.021 307.362,265.114 307.997 M178.200 308.000 C 178.640 308.189,179.270 308.344,179.600 308.344 C 179.978 308.344,179.904 308.217,179.400 308.000 C 178.960 307.811,178.330 307.656,178.000 307.656 C 177.622 307.656,177.696 307.783,178.200 308.000 M251.800 308.000 C 251.296 308.217,251.222 308.344,251.600 308.344 C 251.930 308.344,252.560 308.189,253.000 308.000 C 253.504 307.783,253.578 307.656,253.200 307.656 C 252.870 307.656,252.240 307.811,251.800 308.000 M296.597 309.900 C 291.713 317.309,283.432 325.185,273.800 331.583 C 269.289 334.579,267.832 335.690,269.600 334.787 C 276.720 331.151,290.663 318.991,295.270 312.400 C 297.667 308.972,298.534 307.600,298.303 307.600 C 298.198 307.600,297.431 308.635,296.597 309.900 M103.077 309.231 C 103.475 309.908,104.056 310.673,104.368 310.931 C 104.680 311.189,104.432 310.635,103.815 309.700 C 102.520 307.737,102.009 307.412,103.077 309.231 M180.433 308.544 C 180.525 308.623,181.140 308.808,181.800 308.956 C 182.676 309.152,182.838 309.115,182.400 308.818 C 181.860 308.453,180.032 308.198,180.433 308.544 M248.400 308.806 C 247.978 309.082,248.215 309.123,249.200 308.942 C 250.925 308.625,251.251 308.398,249.967 308.406 C 249.435 308.409,248.730 308.589,248.400 308.806 M184.800 309.600 C 185.350 309.776,186.160 309.920,186.600 309.920 C 187.233 309.920,187.192 309.854,186.400 309.600 C 185.850 309.424,185.040 309.280,184.600 309.280 C 183.967 309.280,184.008 309.346,184.800 309.600 M244.400 309.600 C 243.056 310.031,244.508 310.031,246.200 309.600 C 247.278 309.326,247.298 309.294,246.400 309.287 C 245.850 309.283,244.950 309.424,244.400 309.600 M164.800 309.933 C 165.130 310.136,165.850 310.424,166.400 310.571 C 167.095 310.757,167.217 310.725,166.800 310.467 C 166.470 310.264,165.750 309.976,165.200 309.829 C 164.505 309.643,164.383 309.675,164.800 309.933 M188.033 310.144 C 188.125 310.224,189.010 310.396,190.000 310.527 C 191.202 310.686,191.534 310.647,191.000 310.410 C 190.236 310.072,187.686 309.843,188.033 310.144 M240.000 310.400 C 238.656 310.831,240.108 310.831,241.800 310.400 C 242.878 310.126,242.898 310.094,242.000 310.087 C 241.450 310.083,240.550 310.224,240.000 310.400 M192.433 310.944 C 192.525 311.024,193.680 311.195,195.000 311.324 C 196.524 311.474,197.108 311.431,196.600 311.208 C 195.843 310.875,192.079 310.637,192.433 310.944 M234.600 311.214 C 234.078 311.448,234.563 311.488,236.000 311.332 C 237.210 311.200,238.275 311.026,238.367 310.946 C 238.721 310.636,235.357 310.875,234.600 311.214 M105.826 313.100 C 111.455 320.632,120.821 328.776,130.608 334.649 C 136.438 338.148,148.624 343.909,149.128 343.405 C 149.229 343.305,148.791 343.027,148.155 342.788 C 131.912 336.678,114.652 324.552,107.000 313.871 C 106.120 312.643,105.244 311.630,105.053 311.619 C 104.861 311.609,105.210 312.275,105.826 313.100 M201.600 312.028 C 203.402 312.341,210.281 312.528,209.967 312.255 C 209.875 312.175,207.550 312.021,204.800 311.913 C 201.791 311.794,200.517 311.840,201.600 312.028 M225.400 312.000 L 221.800 312.249 225.400 312.277 C 227.380 312.293,229.540 312.168,230.200 312.000 L 231.400 311.695 230.200 311.723 C 229.540 311.738,227.380 311.863,225.400 312.000 M258.200 312.615 C 256.616 313.163,256.614 313.166,258.000 312.938 C 258.770 312.812,259.670 312.554,260.000 312.366 C 260.881 311.864,260.030 311.982,258.200 312.615 M214.311 312.693 C 215.251 312.778,216.691 312.777,217.511 312.691 C 218.330 312.605,217.560 312.536,215.800 312.537 C 214.040 312.539,213.370 312.609,214.311 312.693 M178.800 314.400 C 179.350 314.576,180.160 314.720,180.600 314.720 C 181.233 314.720,181.192 314.654,180.400 314.400 C 179.850 314.224,179.040 314.080,178.600 314.080 C 177.967 314.080,178.008 314.146,178.800 314.400 M251.200 314.400 C 250.408 314.654,250.367 314.720,251.000 314.720 C 251.440 314.720,252.250 314.576,252.800 314.400 C 253.592 314.146,253.633 314.080,253.000 314.080 C 252.560 314.080,251.750 314.224,251.200 314.400 M244.869 315.683 C 243.697 315.896,242.821 316.154,242.922 316.255 C 243.132 316.465,248.400 315.603,248.400 315.359 C 248.400 315.136,247.343 315.233,244.869 315.683 M190.400 316.787 C 191.391 317.117,194.287 317.335,193.967 317.054 C 193.875 316.974,192.810 316.806,191.600 316.681 C 190.180 316.534,189.754 316.571,190.400 316.787 M239.000 316.800 L 237.400 317.086 238.800 317.115 C 239.570 317.131,240.560 316.989,241.000 316.800 C 241.943 316.395,241.262 316.395,239.000 316.800 M194.833 317.345 C 194.925 317.425,196.260 317.589,197.800 317.709 C 199.498 317.841,200.128 317.802,199.400 317.611 C 198.184 317.291,194.527 317.078,194.833 317.345 M232.200 317.611 C 231.472 317.802,232.102 317.841,233.800 317.709 C 235.340 317.589,236.675 317.425,236.767 317.345 C 237.073 317.078,233.416 317.291,232.200 317.611 M205.600 318.460 C 208.400 318.792,222.574 318.787,226.000 318.453 C 227.430 318.314,222.930 318.200,216.000 318.200 C 209.070 318.200,204.390 318.317,205.600 318.460 M262.600 338.174 C 259.520 339.773,255.245 341.768,253.101 342.608 C 250.956 343.447,249.268 344.201,249.350 344.283 C 249.903 344.836,266.531 337.134,268.180 335.562 C 268.796 334.975,268.465 335.130,262.600 338.174 M150.600 344.152 C 152.726 345.074,158.445 346.888,158.633 346.700 C 158.733 346.600,156.836 345.861,154.417 345.059 C 149.932 343.571,148.448 343.218,150.600 344.152 M241.800 346.412 C 241.360 346.609,239.830 347.132,238.400 347.574 C 236.970 348.016,236.430 348.272,237.200 348.142 C 239.209 347.803,244.353 346.081,243.400 346.067 C 242.960 346.060,242.240 346.215,241.800 346.412 M159.800 347.200 C 160.996 347.714,161.995 347.714,161.200 347.200 C 160.870 346.987,160.240 346.822,159.800 346.834 L 159.000 346.856 159.800 347.200 M162.800 348.000 C 164.168 348.438,165.219 348.438,164.200 348.000 C 163.760 347.811,163.040 347.662,162.600 347.668 C 161.957 347.677,161.996 347.743,162.800 348.000 M165.235 348.568 C 165.500 348.833,170.773 350.004,171.525 349.965 C 172.342 349.922,166.921 348.453,165.833 348.422 C 165.412 348.410,165.142 348.476,165.235 348.568 M232.800 348.799 C 232.250 348.983,231.107 349.251,230.259 349.393 C 229.412 349.535,228.813 349.746,228.928 349.861 C 229.151 350.084,235.211 348.922,235.540 348.594 C 235.849 348.285,233.897 348.431,232.800 348.799 M173.200 350.400 C 173.750 350.576,174.830 350.717,175.600 350.714 L 177.000 350.708 175.400 350.377 C 173.263 349.935,171.796 349.950,173.200 350.400 M225.000 350.400 L 223.800 350.705 225.000 350.713 C 225.660 350.717,226.650 350.576,227.200 350.400 L 228.200 350.080 227.200 350.087 C 226.650 350.091,225.660 350.232,225.000 350.400 M178.200 351.200 C 178.860 351.368,180.120 351.506,181.000 351.507 L 182.600 351.508 181.000 351.177 C 180.120 350.995,178.860 350.857,178.200 350.870 L 177.000 350.895 178.200 351.200 M220.000 351.200 C 218.601 351.648,220.839 351.648,222.600 351.200 L 223.800 350.895 222.400 350.887 C 221.630 350.883,220.550 351.024,220.000 351.200 M184.800 351.998 C 186.593 352.339,192.284 352.538,191.967 352.247 C 191.875 352.164,189.820 351.996,187.400 351.875 C 184.404 351.725,183.574 351.764,184.800 351.998 M211.200 352.000 L 208.200 352.256 211.200 352.288 C 212.850 352.306,215.190 352.184,216.400 352.017 L 218.600 351.713 216.400 351.728 C 215.190 351.737,212.850 351.859,211.200 352.000 M196.300 352.698 C 198.335 352.771,201.665 352.771,203.700 352.698 C 205.735 352.625,204.070 352.566,200.000 352.566 C 195.930 352.566,194.265 352.625,196.300 352.698 " stroke="none" fill="#ac9474" fill-rule="evenodd"></path></g></svg>