<svg version="1.1" id="Layer_1" xmlns="http://www.w3.org/2000/svg" xmlns:xlink="http://www.w3.org/1999/xlink" x="0px" y="0px"
	 width="100%" viewBox="0 0 256 256" enable-background="new 0 0 256 256" xml:space="preserve">
<path fill="#000000" opacity="1.000000" stroke="none" 
	d="
M257.000000,125.000000 
	C257.000000,168.963379 257.000000,212.926758 257.000000,256.945068 
	C171.774338,256.945068 86.548645,256.945068 1.000000,256.945068 
	C1.000000,211.312943 1.000000,165.625137 1.409318,119.363174 
	C2.276399,121.112511 2.454313,123.535141 3.236847,125.743546 
	C8.766645,141.349228 19.758324,151.428818 35.520519,155.845779 
	C41.554050,157.536530 48.082748,157.460251 54.203480,158.168106 
	C51.725464,166.567383 52.912567,175.087204 56.705490,183.492355 
	C62.264282,195.810669 72.258064,203.848831 83.614059,209.837112 
	C102.696686,219.899811 123.374710,221.999222 144.562943,219.022842 
	C160.664536,216.760986 175.426941,211.412003 188.113022,200.608109 
	C200.759430,189.837967 208.513138,177.453079 205.187561,160.136703 
	C205.015091,159.238571 205.376129,158.238007 205.369858,158.291061 
	C209.969147,157.832687 214.169403,157.698486 218.259476,156.956818 
	C235.182938,153.888062 247.005249,144.270508 254.087448,128.646774 
	C254.710037,127.273315 256.013062,126.208290 257.000000,125.000000 
z"/>
<path fill="#000000" opacity="1.000000" stroke="none" 
	d="
M1.000000,103.000000 
	C1.000000,69.032707 1.000000,35.065422 1.000000,1.049066 
	C86.218498,1.049066 171.437042,1.049066 257.000000,1.049066 
	C257.000000,33.020073 257.000000,65.041374 256.640442,97.677017 
	C255.885834,97.618637 255.411484,96.979797 255.107529,96.268181 
	C249.497894,83.134827 240.241791,74.722305 225.679855,72.443787 
	C218.063339,71.252022 211.524231,73.521553 205.316589,77.056061 
	C202.269592,72.881004 199.762604,68.638206 196.489487,65.105202 
	C184.364868,52.017979 169.814301,42.689552 152.482925,37.986694 
	C149.088440,37.065601 146.928162,36.057961 148.805466,31.682394 
	C149.766602,29.442184 149.438873,26.304098 148.791702,23.805424 
	C147.969345,20.630411 146.232071,17.692377 144.531708,13.842593 
	C141.339401,20.263317 138.891556,25.186666 136.181625,30.637177 
	C126.244980,16.667648 115.798698,10.457170 111.141022,13.932193 
	C114.481613,18.771061 117.797020,23.573456 121.112434,28.375851 
	C120.857574,28.903196 120.602715,29.430544 120.347855,29.957891 
	C113.132133,27.342569 106.120071,27.265989 99.174294,31.119295 
	C102.690048,32.405098 106.205795,33.690903 110.621048,35.305676 
	C84.776199,41.341194 63.779148,52.492813 50.743454,75.938530 
	C48.293991,75.000122 45.652531,73.546249 42.839794,73.035393 
	C40.050861,72.528854 37.031551,73.356461 34.213654,72.932228 
	C22.502497,71.169128 7.576406,83.554085 4.266376,95.074631 
	C3.482204,97.803947 2.104619,100.362755 1.000000,103.000000 
z"/>
<path fill="#906D51" opacity="1.000000" stroke="none" 
	d="
M1.000000,103.466858 
	C2.104619,100.362755 3.482204,97.803947 4.266376,95.074631 
	C7.576406,83.554085 22.502497,71.169128 34.213654,72.932228 
	C37.031551,73.356461 40.050861,72.528854 42.839794,73.035393 
	C45.652531,73.546249 48.293991,75.000122 50.743454,75.938530 
	C63.779148,52.492813 84.776199,41.341194 110.621048,35.305676 
	C106.205795,33.690903 102.690048,32.405098 99.174294,31.119295 
	C106.120071,27.265989 113.132133,27.342569 120.347855,29.957891 
	C120.602715,29.430544 120.857574,28.903196 121.112434,28.375851 
	C117.797020,23.573456 114.481613,18.771061 111.141022,13.932193 
	C115.798698,10.457170 126.244980,16.667648 136.181625,30.637177 
	C138.891556,25.186666 141.339401,20.263317 144.531708,13.842593 
	C146.232071,17.692377 147.969345,20.630411 148.791702,23.805424 
	C149.438873,26.304098 149.766602,29.442184 148.805466,31.682394 
	C146.928162,36.057961 149.088440,37.065601 152.482925,37.986694 
	C169.814301,42.689552 184.364868,52.017979 196.489487,65.105202 
	C199.762604,68.638206 202.269592,72.881004 205.316589,77.056061 
	C211.524231,73.521553 218.063339,71.252022 225.679855,72.443787 
	C240.241791,74.722305 249.497894,83.134827 255.107529,96.268181 
	C255.411484,96.979797 255.885834,97.618637 256.640442,98.145676 
	C257.000000,106.687561 257.000000,115.375130 257.000000,124.531349 
	C256.013062,126.208290 254.710037,127.273315 254.087448,128.646774 
	C247.005249,144.270508 235.182938,153.888062 218.259476,156.956818 
	C214.169403,157.698486 209.969147,157.832687 205.369858,158.291061 
	C205.376129,158.238007 205.015091,159.238571 205.187561,160.136703 
	C208.513138,177.453079 200.759430,189.837967 188.113022,200.608109 
	C175.426941,211.412003 160.664536,216.760986 144.562943,219.022842 
	C123.374710,221.999222 102.696686,219.899811 83.614059,209.837112 
	C72.258064,203.848831 62.264282,195.810669 56.705490,183.492355 
	C52.912567,175.087204 51.725464,166.567383 54.203480,158.168106 
	C48.082748,157.460251 41.554050,157.536530 35.520519,155.845779 
	C19.758324,151.428818 8.766645,141.349228 3.236847,125.743546 
	C2.454313,123.535141 2.276399,121.112511 1.409318,118.894516 
	C1.000000,113.977905 1.000000,108.955818 1.000000,103.466858 
M185.932556,145.426651 
	C185.602737,145.265030 185.272919,145.103409 184.427979,144.525604 
	C182.666061,142.819916 180.607437,141.179138 183.763824,138.188980 
	C187.873734,131.698227 191.064575,124.897942 191.065948,116.112190 
	C191.063004,114.089340 191.060059,112.066490 191.389648,109.401131 
	C189.956985,104.235619 188.524323,99.070099 187.036301,93.951042 
	C187.036301,93.951042 187.104706,93.974342 187.053375,93.323814 
	C186.716934,93.187943 186.380493,93.052071 186.167587,93.003838 
	C186.167587,93.003838 186.257034,92.881599 186.503387,92.242279 
	C186.018051,91.794418 185.532715,91.346558 185.044632,90.969574 
	C185.044632,90.969574 185.113998,90.954765 185.000549,90.273605 
	C184.007690,89.153000 183.014832,88.032394 181.833542,86.485558 
	C181.644226,86.217194 181.388290,86.052155 180.860336,85.576469 
	C180.683670,85.279457 180.423065,85.144035 179.511429,84.766647 
	C174.068649,79.534500 167.626602,76.803398 159.423096,76.441437 
	C150.655991,75.139671 143.365417,78.335869 136.899078,83.812180 
	C136.899078,83.812180 136.839493,83.766220 136.175079,83.904266 
	C134.065399,85.858925 131.955719,87.813591 129.449356,89.439713 
	C128.995224,88.946579 128.541092,88.453445 127.665619,87.699425 
	C127.665619,87.699425 127.170059,87.696449 127.136765,87.783485 
	C127.136765,87.783485 127.228256,87.801132 127.053566,87.178734 
	C126.397087,86.622574 125.740608,86.066422 125.009369,85.210678 
	C125.009369,85.210678 124.779221,85.004829 124.548767,84.471367 
	C124.065063,84.243385 123.581360,84.015396 123.230850,83.812073 
	C123.230850,83.812073 123.253937,83.678604 123.039047,83.054626 
	C115.147766,75.730728 105.331024,74.250954 95.360573,75.308189 
	C88.994576,75.983215 82.564674,78.265793 78.104973,84.665550 
	C76.054268,87.395081 74.003555,90.124603 71.287483,93.101715 
	C70.839233,93.775352 70.253746,94.394768 69.963058,95.130646 
	C64.479378,109.012657 66.281769,122.313408 73.046906,135.292664 
	C73.924530,136.976425 73.943741,139.107620 73.917191,141.586288 
	C70.919701,145.304092 67.922211,149.021912 64.393852,153.141830 
	C63.907589,154.111725 63.421329,155.081604 62.808891,156.242203 
	C62.808891,156.242203 62.936760,156.431778 62.321079,157.022064 
	C59.182350,168.870239 60.265579,179.852631 69.145119,189.727219 
	C69.628357,190.169144 70.111595,190.611084 70.935799,191.563675 
	C71.279488,191.779510 71.623177,191.995346 72.290428,192.781158 
	C77.447945,196.547485 82.605461,200.313812 88.076576,204.720139 
	C99.875214,211.214554 112.368637,214.833221 126.873604,213.967728 
	C129.579086,213.947083 132.284561,213.926422 135.905746,214.076324 
	C151.004929,214.015335 164.768036,209.736557 177.508896,200.924179 
	C177.774475,200.834320 177.966461,200.662323 178.726547,200.119064 
	C180.257889,198.775665 181.789246,197.432251 183.807709,195.835983 
	C184.554810,195.040970 185.301895,194.245956 186.640732,193.093430 
	C186.931244,192.740875 187.221756,192.388306 187.800369,191.880127 
	C187.969742,191.723434 188.061096,191.529922 188.690399,191.004059 
	C190.166077,189.021179 191.641769,187.038300 193.048828,185.027786 
	C193.048828,185.027786 193.062042,185.100571 193.653290,184.720078 
	C198.881577,176.530350 199.813217,167.942917 196.025497,158.986786 
	C196.025497,158.986786 196.090561,158.965408 196.050995,158.246017 
	C194.397644,155.667953 192.744308,153.089890 190.734406,150.055008 
	C189.582092,149.020630 188.429779,147.986267 186.998047,146.445145 
	C186.667511,146.267319 186.336990,146.089493 186.023544,145.996811 
	C186.023544,145.996811 186.108490,145.978622 185.932556,145.426651 
M215.257324,90.018532 
	C214.825150,91.349030 213.872421,92.759071 214.061218,93.994690 
	C214.569626,97.321915 215.565063,100.574715 216.465515,104.580368 
	C218.072083,119.659851 215.506378,133.989883 208.246811,147.751938 
	C219.179535,149.127151 227.815796,145.619980 235.733871,138.029358 
	C237.594208,135.530136 239.626556,133.139435 241.283890,130.512177 
	C247.201279,121.131767 246.550812,101.139099 237.787247,95.113434 
	C236.636673,94.039795 235.486084,92.966156 233.876343,91.317413 
	C227.870956,87.173492 220.257172,86.581116 215.969757,89.920502 
	C215.969757,89.920502 215.910873,89.860725 215.257324,90.018532 
M24.342537,92.090714 
	C23.776709,92.685417 23.210880,93.280121 22.288910,93.939301 
	C22.288910,93.939301 21.988415,94.141037 21.413881,94.341621 
	C21.123669,94.868439 20.833456,95.395264 20.098171,96.058685 
	C19.800634,96.183151 19.569288,96.383888 18.920090,97.087502 
	C15.196062,101.749207 12.818510,106.825768 14.016861,113.798180 
	C13.979568,114.855560 13.942276,115.912941 13.719283,117.502808 
	C13.768734,117.684166 13.818184,117.865532 13.937043,118.785751 
	C13.977507,119.524422 14.017971,120.263100 13.988973,121.778381 
	C15.967862,125.926857 17.946751,130.075333 20.079205,134.603546 
	C20.238367,134.839325 20.453066,135.001663 20.897779,135.696564 
	C21.598347,136.430084 22.298916,137.163605 23.420650,138.258682 
	C23.906199,138.522491 24.391747,138.786316 25.107960,139.675064 
	C26.736217,140.751907 28.364473,141.828766 30.562033,143.319107 
	C36.242199,147.772629 42.680840,148.581238 49.966137,147.529709 
	C49.524117,146.267578 49.287018,145.321487 48.876076,144.458145 
	C43.834778,133.866989 41.290230,122.707550 41.910648,110.996574 
	C42.246738,104.652557 43.340973,98.348717 44.209682,91.221817 
	C43.392067,90.310226 42.638763,88.683121 41.746414,88.602905 
	C35.850174,88.072906 29.566240,86.120636 24.974243,91.957947 
	C24.974243,91.957947 24.933830,91.883224 24.342537,92.090714 
z"/>
<path fill="#FACF9F" opacity="1.000000" stroke="none" 
	d="
M191.057129,110.043640 
	C191.060059,112.066490 191.063004,114.089340 190.651413,116.683594 
	C188.724899,121.723991 187.204453,126.190147 185.704147,130.663055 
	C184.825485,133.282654 183.978943,135.913055 183.117935,138.538589 
	C180.607437,141.179138 182.666061,142.819916 184.849426,144.939453 
	C185.550079,145.561752 185.829285,145.770187 186.108490,145.978622 
	C186.108490,145.978622 186.023544,145.996811 186.189163,146.170288 
	C186.662338,146.546494 186.969894,146.749191 187.277451,146.951904 
	C188.429779,147.986267 189.582092,149.020630 190.902496,150.688660 
	C192.743912,153.870010 194.417236,156.417709 196.090561,158.965408 
	C196.090561,158.965408 196.025497,158.986786 196.021759,159.427399 
	C196.845245,168.491211 195.301025,176.836594 193.062042,185.100571 
	C193.062042,185.100571 193.048828,185.027786 192.727097,185.081207 
	C190.961716,187.189621 189.518082,189.244614 188.074432,191.299591 
	C188.061096,191.529922 187.969742,191.723434 187.349930,192.124573 
	C186.615982,192.729660 186.332474,193.090286 186.048981,193.450928 
	C185.301895,194.245956 184.554810,195.040970 183.182449,195.990509 
	C181.066406,197.566101 179.575638,198.987137 178.084854,200.408188 
	C177.966461,200.662323 177.774475,200.834320 176.921982,200.966858 
	C174.656708,201.604507 172.880234,202.011017 171.315903,202.825119 
	C161.201538,208.088684 150.608887,211.559296 139.119720,212.088303 
	C137.718231,212.152832 136.365417,213.274200 134.990036,213.905777 
	C132.284561,213.926422 129.579086,213.947083 126.114029,213.705704 
	C117.967873,211.951538 110.530731,210.668274 103.211769,208.896729 
	C97.980064,207.630432 92.906891,205.709183 87.762985,204.080139 
	C82.605461,200.313812 77.447945,196.547485 71.951866,192.247406 
	C71.273811,191.493454 70.934326,191.273224 70.594833,191.053009 
	C70.111595,190.611084 69.628357,190.169144 69.044746,189.110107 
	C68.639465,187.380402 68.658577,185.987900 67.977898,185.199921 
	C62.979656,179.413712 62.656277,172.536362 62.972431,165.429062 
	C63.105549,162.436417 62.957172,159.431259 62.936760,156.431778 
	C62.936760,156.431778 62.808891,156.242203 63.213615,156.035645 
	C64.053795,154.799286 64.489258,153.769501 64.924713,152.739716 
	C67.922211,149.021912 70.919701,145.304092 74.475952,141.259964 
	C78.408066,139.624573 76.849258,137.291199 75.714424,135.725998 
	C69.949120,127.774300 68.607574,118.683601 69.128433,109.321846 
	C69.435806,103.797333 70.970245,98.341080 71.952850,92.854134 
	C74.003555,90.124603 76.054268,87.395081 78.578949,84.311729 
	C80.136948,83.565750 81.338402,83.357941 82.287231,82.753540 
	C94.743896,74.818687 107.120766,74.561035 119.548805,82.854347 
	C120.530182,83.509239 122.007240,83.421310 123.253937,83.678604 
	C123.253937,83.678604 123.230850,83.812073 123.293991,84.041794 
	C123.831169,84.515953 124.305199,84.760391 124.779221,85.004822 
	C124.779221,85.004829 125.009369,85.210678 125.093185,85.720093 
	C125.860748,86.753380 126.544502,87.277260 127.228256,87.801132 
	C127.228256,87.801132 127.136765,87.783485 127.195969,87.909523 
	C127.532440,88.010483 127.809700,87.985397 128.086960,87.960312 
	C128.541092,88.453445 128.995224,88.946579 129.872009,89.822937 
	C132.476257,88.059509 134.657883,85.912865 136.839493,83.766220 
	C136.839493,83.766220 136.899078,83.812180 137.254913,83.860176 
	C145.081406,81.598831 152.552078,79.289497 160.022751,76.980164 
	C167.626602,76.803398 174.068649,79.534500 179.935852,85.131134 
	C180.572357,85.693451 180.807495,85.858391 181.065720,85.990456 
	C181.388290,86.052155 181.644226,86.217194 181.976379,87.046997 
	C183.117477,88.723885 184.115738,89.839325 185.113998,90.954773 
	C185.113998,90.954765 185.044632,90.969574 185.085037,91.241333 
	C185.502640,91.969261 185.879837,92.425430 186.257034,92.881592 
	C186.257034,92.881599 186.167587,93.003838 186.244308,93.172676 
	C186.582260,93.552452 186.843475,93.763397 187.104706,93.974342 
	C187.104706,93.974342 187.036301,93.951042 187.039093,94.340530 
	C188.380295,99.834564 189.718704,104.939102 191.057129,110.043640 
M113.082726,188.798035 
	C113.082726,188.798035 113.076241,188.647156 113.517067,189.253540 
	C117.802002,190.367188 122.054405,192.248474 126.378777,192.431747 
	C134.900833,192.792862 143.462799,192.212234 152.895096,192.013565 
	C157.594009,191.060745 162.292923,190.107910 167.703094,188.944275 
	C169.300613,187.739502 170.898132,186.534729 172.495651,185.329941 
	C172.204071,184.720932 171.912491,184.111908 171.620911,183.502884 
	C158.611053,187.001099 145.532272,189.728928 131.577316,187.304199 
	C124.315353,185.895691 117.053391,184.487183 109.174644,182.692383 
	C101.500031,179.373535 93.203873,177.157639 87.883957,169.805603 
	C87.126053,168.758194 84.910309,168.765671 83.369286,168.284943 
	C83.885429,169.831741 83.922272,172.049057 84.995651,172.816315 
	C91.866516,177.727676 98.965073,182.320526 106.547241,187.491898 
	C108.775566,187.920105 111.003883,188.348312 113.082726,188.798035 
M144.864975,145.845200 
	C144.864975,145.845200 144.719391,145.782791 145.435944,145.679947 
	C147.814697,141.768219 146.024948,139.183289 140.560562,139.063324 
	C133.839294,138.915741 127.105682,138.862900 120.391907,139.131607 
	C118.420349,139.210510 116.441132,140.412247 114.609062,141.373215 
	C114.302368,141.534088 114.731842,143.098450 115.008217,144.405579 
	C115.008217,144.405579 115.051125,144.837128 115.154800,145.583527 
	C117.309822,146.712280 119.393433,148.606766 121.634239,148.815781 
	C126.838104,149.301163 132.128860,149.168472 137.361115,148.873337 
	C139.307236,148.763550 141.188385,147.501648 143.205505,146.730225 
	C143.205505,146.730225 143.258347,146.828934 143.907837,146.612595 
	C144.238953,146.305389 144.570068,145.998199 144.864975,145.845200 
M145.358932,123.953674 
	C151.325790,132.195557 161.435364,134.449936 169.372162,129.308517 
	C177.118988,124.290161 179.625214,113.938850 174.990219,106.104446 
	C170.159286,97.938858 159.764252,94.971146 151.638062,99.437553 
	C143.613541,103.848076 140.606796,114.544655 145.358932,123.953674 
M108.387878,131.295105 
	C116.630524,127.652588 119.554253,122.664139 119.033737,113.131279 
	C118.594437,105.085800 112.466156,98.862595 103.626801,97.485733 
	C97.197304,96.484238 88.972740,101.377380 86.320648,107.687218 
	C81.068024,120.184280 91.403366,135.349487 108.387878,131.295105 
z"/>
<path fill="#F9CE9E" opacity="1.000000" stroke="none" 
	d="
M21.988415,94.141037 
	C21.988415,94.141037 22.288910,93.939301 22.806519,93.870239 
	C23.860693,93.161865 24.397263,92.522545 24.933830,91.883224 
	C24.933830,91.883224 24.974243,91.957947 25.339184,91.941864 
	C31.843395,90.215080 37.985104,88.060852 44.093208,92.026749 
	C43.340973,98.348717 42.246738,104.652557 41.910648,110.996574 
	C41.290230,122.707550 43.834778,133.866989 48.876076,144.458145 
	C49.287018,145.321487 49.524117,146.267578 49.966137,147.529709 
	C42.680840,148.581238 36.242199,147.772629 30.185131,142.796249 
	C28.164585,141.198975 26.520939,140.124557 24.877295,139.050125 
	C24.391747,138.786316 23.906199,138.522491 23.184052,137.734070 
	C22.206070,136.503159 21.464687,135.796844 20.723303,135.090546 
	C20.453066,135.001663 20.238367,134.839325 20.005219,134.022171 
	C17.973633,129.294449 16.016033,125.148109 14.058435,121.001770 
	C14.017971,120.263100 13.977507,119.524422 14.034777,118.305992 
	C14.180716,117.723564 14.294972,117.591194 14.264677,117.523811 
	C14.175517,117.325500 14.029030,117.152954 13.904983,116.970322 
	C13.942276,115.912941 13.979568,114.855560 14.243976,113.113480 
	C16.240995,108.044716 18.066603,103.681534 19.725044,99.255707 
	C19.996078,98.532425 19.529694,97.532806 19.404137,96.660912 
	C19.569288,96.383888 19.800634,96.183151 20.596600,95.858215 
	C21.392822,95.152184 21.690619,94.646606 21.988415,94.141037 
z"/>
<path fill="#F8CE9E" opacity="1.000000" stroke="none" 
	d="
M235.070267,138.220383 
	C227.815796,145.619980 219.179535,149.127151 208.246811,147.751938 
	C215.506378,133.989883 218.072083,119.659851 216.580261,103.876083 
	C216.433624,98.734772 216.172256,94.297752 215.910873,89.860725 
	C215.910873,89.860725 215.969757,89.920502 216.395935,89.941193 
	C222.659927,90.605423 228.497711,91.248978 234.335510,91.892517 
	C235.486084,92.966156 236.636673,94.039795 237.973206,95.746651 
	C238.487350,97.314438 238.660294,98.344566 239.167603,99.168922 
	C244.663910,108.100243 244.364410,117.467514 240.904999,126.859138 
	C239.444336,130.824585 237.043655,134.443787 235.070267,138.220383 
z"/>
<path fill="#F2D3B3" opacity="1.000000" stroke="none" 
	d="
M71.620163,92.977921 
	C70.970245,98.341080 69.435806,103.797333 69.128433,109.321846 
	C68.607574,118.683601 69.949120,127.774300 75.714424,135.725998 
	C76.849258,137.291199 78.408066,139.624573 74.697632,140.982605 
	C73.943741,139.107620 73.924530,136.976425 73.046906,135.292664 
	C66.281769,122.313408 64.479378,109.012657 69.963058,95.130646 
	C70.253746,94.394768 70.839233,93.775352 71.620163,92.977921 
z"/>
<path fill="#F2D5B5" opacity="1.000000" stroke="none" 
	d="
M123.146492,83.366615 
	C122.007240,83.421310 120.530182,83.509239 119.548805,82.854347 
	C107.120766,74.561035 94.743896,74.818687 82.287231,82.753540 
	C81.338402,83.357941 80.136948,83.565750 78.709625,83.986053 
	C82.564674,78.265793 88.994576,75.983215 95.360573,75.308189 
	C105.331024,74.250954 115.147766,75.730728 123.146492,83.366615 
z"/>
<path fill="#F3CFA8" opacity="1.000000" stroke="none" 
	d="
M235.402069,138.124878 
	C237.043655,134.443787 239.444336,130.824585 240.904999,126.859138 
	C244.364410,117.467514 244.663910,108.100243 239.167603,99.168922 
	C238.660294,98.344566 238.487350,97.314438 238.140228,95.990387 
	C246.550812,101.139099 247.201279,121.131767 241.283890,130.512177 
	C239.626556,133.139435 237.594208,135.530136 235.402069,138.124878 
z"/>
<path fill="#F2D3B2" opacity="1.000000" stroke="none" 
	d="
M135.447891,213.991058 
	C136.365417,213.274200 137.718231,212.152832 139.119720,212.088303 
	C150.608887,211.559296 161.201538,208.088684 171.315903,202.825119 
	C172.880234,202.011017 174.656708,201.604507 176.730072,201.014313 
	C164.768036,209.736557 151.004929,214.015335 135.447891,213.991058 
z"/>
<path fill="#F1D3B0" opacity="1.000000" stroke="none" 
	d="
M87.919777,204.400146 
	C92.906891,205.709183 97.980064,207.630432 103.211769,208.896729 
	C110.530731,210.668274 117.967873,211.951538 125.661179,213.659271 
	C112.368637,214.833221 99.875214,211.214554 87.919777,204.400146 
z"/>
<path fill="#F3D6B5" opacity="1.000000" stroke="none" 
	d="
M62.628922,156.726929 
	C62.957172,159.431259 63.105549,162.436417 62.972431,165.429062 
	C62.656277,172.536362 62.979656,179.413712 67.977898,185.199921 
	C68.658577,185.987900 68.639465,187.380402 68.940170,188.886078 
	C60.265579,179.852631 59.182350,168.870239 62.628922,156.726929 
z"/>
<path fill="#F5D7B5" opacity="1.000000" stroke="none" 
	d="
M193.357666,184.910324 
	C195.301025,176.836594 196.845245,168.491211 196.029678,159.394073 
	C199.813217,167.942917 198.881577,176.530350 193.357666,184.910324 
z"/>
<path fill="#F4D5B1" opacity="1.000000" stroke="none" 
	d="
M159.722931,76.710800 
	C152.552078,79.289497 145.081406,81.598831 137.224152,83.881836 
	C143.365417,78.335869 150.655991,75.139671 159.722931,76.710800 
z"/>
<path fill="#EFD2B1" opacity="1.000000" stroke="none" 
	d="
M183.440887,138.363785 
	C183.978943,135.913055 184.825485,133.282654 185.704147,130.663055 
	C187.204453,126.190147 188.724899,121.723991 190.573181,117.112930 
	C191.064575,124.897942 187.873734,131.698227 183.440887,138.363785 
z"/>
<path fill="#F3CFA8" opacity="1.000000" stroke="none" 
	d="
M44.151443,91.624283 
	C37.985104,88.060852 31.843395,90.215080 25.299984,91.925499 
	C29.566240,86.120636 35.850174,88.072906 41.746414,88.602905 
	C42.638763,88.683121 43.392067,90.310226 44.151443,91.624283 
z"/>
<path fill="#F3CFA8" opacity="1.000000" stroke="none" 
	d="
M234.105927,91.604965 
	C228.497711,91.248978 222.659927,90.605423 216.354004,89.939789 
	C220.257172,86.581116 227.870956,87.173492 234.105927,91.604965 
z"/>
<path fill="#F0CEA9" opacity="1.000000" stroke="none" 
	d="
M19.162113,96.874207 
	C19.529694,97.532806 19.996078,98.532425 19.725044,99.255707 
	C18.066603,103.681534 16.240995,108.044716 14.243627,112.716324 
	C12.818510,106.825768 15.196062,101.749207 19.162113,96.874207 
z"/>
<path fill="#F4D8B7" opacity="1.000000" stroke="none" 
	d="
M191.223389,109.722382 
	C189.718704,104.939102 188.380295,99.834564 187.066772,94.317307 
	C188.524323,99.070099 189.956985,104.235619 191.223389,109.722382 
z"/>
<path fill="#F3CFA8" opacity="1.000000" stroke="none" 
	d="
M215.584106,89.939629 
	C216.172256,94.297752 216.433624,98.734772 216.531097,103.514427 
	C215.565063,100.574715 214.569626,97.321915 214.061218,93.994690 
	C213.872421,92.759071 214.825150,91.349030 215.584106,89.939629 
z"/>
<path fill="#F0CEA9" opacity="1.000000" stroke="none" 
	d="
M14.023705,121.390076 
	C16.016033,125.148109 17.973633,129.294449 19.928436,133.832306 
	C17.946751,130.075333 15.967862,125.926857 14.023705,121.390076 
z"/>
<path fill="#F4D5B1" opacity="1.000000" stroke="none" 
	d="
M136.507294,83.835243 
	C134.657883,85.912865 132.476257,88.059509 130.070343,89.987206 
	C131.955719,87.813591 134.065399,85.858925 136.507294,83.835243 
z"/>
<path fill="#F4D5B2" opacity="1.000000" stroke="none" 
	d="
M196.070770,158.605713 
	C194.417236,156.417709 192.743912,153.870010 191.080780,150.917068 
	C192.744308,153.089890 194.397644,155.667953 196.070770,158.605713 
z"/>
<path fill="#F5D7B5" opacity="1.000000" stroke="none" 
	d="
M188.382416,191.151825 
	C189.518082,189.244614 190.961716,187.189621 192.761414,185.095032 
	C191.641769,187.038300 190.166077,189.021179 188.382416,191.151825 
z"/>
<path fill="#F2D3B2" opacity="1.000000" stroke="none" 
	d="
M178.405701,200.263626 
	C179.575638,198.987137 181.066406,197.566101 182.938904,196.116943 
	C181.789246,197.432251 180.257889,198.775665 178.405701,200.263626 
z"/>
<path fill="#F0CEA9" opacity="1.000000" stroke="none" 
	d="
M24.992626,139.362595 
	C26.520939,140.124557 28.164585,141.198975 29.900480,142.589508 
	C28.364473,141.828766 26.736217,140.751907 24.992626,139.362595 
z"/>
<path fill="#F4D8B7" opacity="1.000000" stroke="none" 
	d="
M185.057281,90.614189 
	C184.115738,89.839325 183.117477,88.723885 182.070618,87.260117 
	C183.014832,88.032394 184.007690,89.153000 185.057281,90.614189 
z"/>
<path fill="#F0CEA9" opacity="1.000000" stroke="none" 
	d="
M20.810543,135.393555 
	C21.464687,135.796844 22.206070,136.503159 22.973469,137.553314 
	C22.298916,137.163605 21.598347,136.430084 20.810543,135.393555 
z"/>
<path fill="#F3D6B5" opacity="1.000000" stroke="none" 
	d="
M64.659286,152.940765 
	C64.489258,153.769501 64.053795,154.799286 63.276703,155.940277 
	C63.421329,155.081604 63.907589,154.111725 64.659286,152.940765 
z"/>
<path fill="#F2D5B5" opacity="1.000000" stroke="none" 
	d="
M127.140915,87.489929 
	C126.544502,87.277260 125.860748,86.753380 125.130554,85.869888 
	C125.740608,86.066422 126.397087,86.622574 127.140915,87.489929 
z"/>
<path fill="#F3CFA8" opacity="1.000000" stroke="none" 
	d="
M24.638184,91.986969 
	C24.397263,92.522545 23.860693,93.161865 22.984589,93.838005 
	C23.210880,93.280121 23.776709,92.685417 24.638184,91.986969 
z"/>
<path fill="#F2D5B5" opacity="1.000000" stroke="none" 
	d="
M124.663994,84.738098 
	C124.305199,84.760391 123.831169,84.515953 123.227402,84.029465 
	C123.581360,84.015396 124.065063,84.243385 124.663994,84.738098 
z"/>
<path fill="#F4D8B7" opacity="1.000000" stroke="none" 
	d="
M186.380219,92.561935 
	C185.879837,92.425430 185.502640,91.969261 185.086411,91.205894 
	C185.532715,91.346558 186.018051,91.794418 186.380219,92.561935 
z"/>
<path fill="#F3CFA8" opacity="1.000000" stroke="none" 
	d="
M21.701149,94.241333 
	C21.690619,94.646606 21.392822,95.152184 20.819134,95.789917 
	C20.833456,95.395264 21.123669,94.868439 21.701149,94.241333 
z"/>
<path fill="#F4D8B7" opacity="1.000000" stroke="none" 
	d="
M187.079041,93.649078 
	C186.843475,93.763397 186.582260,93.552452 186.182541,93.128860 
	C186.380493,93.052071 186.716934,93.187943 187.079041,93.649078 
z"/>
<path fill="#F4D5B2" opacity="1.000000" stroke="none" 
	d="
M187.137756,146.698517 
	C186.969894,146.749191 186.662338,146.546494 186.180618,146.127716 
	C186.336990,146.089493 186.667511,146.267319 187.137756,146.698517 
z"/>
<path fill="#F4D5B2" opacity="1.000000" stroke="none" 
	d="
M186.020523,145.702637 
	C185.829285,145.770187 185.550079,145.561752 185.106964,145.147552 
	C185.272919,145.103409 185.602737,145.265030 186.020523,145.702637 
z"/>
<path fill="#F3D6B5" opacity="1.000000" stroke="none" 
	d="
M70.765320,191.308334 
	C70.934326,191.273224 71.273811,191.493454 71.790085,191.962433 
	C71.623177,191.995346 71.279488,191.779510 70.765320,191.308334 
z"/>
<path fill="#F5D7B5" opacity="1.000000" stroke="none" 
	d="
M186.344849,193.272171 
	C186.332474,193.090286 186.615982,192.729660 187.205872,192.202393 
	C187.221756,192.388306 186.931244,192.740875 186.344849,193.272171 
z"/>
<path fill="#F4D8B7" opacity="1.000000" stroke="none" 
	d="
M180.963028,85.783463 
	C180.807495,85.858391 180.572357,85.693451 180.219406,85.332916 
	C180.423065,85.144035 180.683670,85.279457 180.963028,85.783463 
z"/>
<path fill="#F0CEA9" opacity="1.000000" stroke="none" 
	d="
M13.812133,117.236565 
	C14.029030,117.152954 14.175517,117.325500 14.264677,117.523811 
	C14.294972,117.591194 14.180716,117.723564 14.000072,117.936562 
	C13.818184,117.865532 13.768734,117.684166 13.812133,117.236565 
z"/>
<path fill="#F2D5B5" opacity="1.000000" stroke="none" 
	d="
M127.876289,87.829865 
	C127.809700,87.985397 127.532440,88.010483 127.212616,87.866005 
	C127.170059,87.696449 127.665619,87.699425 127.876289,87.829865 
z"/>
<path fill="#F9F6ED" opacity="1.000000" stroke="none" 
	d="
M145.141724,123.637405 
	C140.606796,114.544655 143.613541,103.848076 151.638062,99.437553 
	C159.764252,94.971146 170.159286,97.938858 174.990219,106.104446 
	C179.625214,113.938850 177.118988,124.290161 169.372162,129.308517 
	C161.435364,134.449936 151.325790,132.195557 145.141724,123.637405 
M152.234207,126.162666 
	C157.389450,129.766464 161.594040,129.886246 165.287613,126.534538 
	C168.438065,123.675667 169.324661,118.408409 167.283203,114.678734 
	C164.777786,110.101402 159.387283,108.360687 154.928726,110.689186 
	C149.444244,113.553482 148.190857,119.335426 152.234207,126.162666 
z"/>
<path fill="#F9F7EE" opacity="1.000000" stroke="none" 
	d="
M107.997284,131.421585 
	C91.403366,135.349487 81.068024,120.184280 86.320648,107.687218 
	C88.972740,101.377380 97.197304,96.484238 103.626801,97.485733 
	C112.466156,98.862595 118.594437,105.085800 119.033737,113.131279 
	C119.554253,122.664139 116.630524,127.652588 107.997284,131.421585 
M104.640617,109.725288 
	C98.476585,110.797119 95.318314,114.546036 95.811668,120.205376 
	C96.245964,125.187164 100.660706,129.072281 105.653069,128.866150 
	C110.547501,128.664078 114.779388,124.447083 115.020134,119.532089 
	C115.290848,114.005135 111.719353,110.333427 104.640617,109.725288 
z"/>
<path fill="#4B3B2F" opacity="1.000000" stroke="none" 
	d="
M132.044800,187.888977 
	C145.532272,189.728928 158.611053,187.001099 171.620911,183.502884 
	C171.912491,184.111908 172.204071,184.720932 172.495651,185.329941 
	C170.898132,186.534729 169.300613,187.739502 166.931900,188.949844 
	C161.438400,189.719833 156.716095,190.484253 151.572479,191.199921 
	C138.279343,193.056274 125.667374,191.010147 113.076241,188.647156 
	C113.076241,188.647156 113.082726,188.798035 112.880066,188.533234 
	C110.447853,187.851654 108.218300,187.434891 105.988754,187.018127 
	C98.965073,182.320526 91.866516,177.727676 84.995651,172.816315 
	C83.922272,172.049057 83.885429,169.831741 83.369286,168.284943 
	C84.910309,168.765671 87.126053,168.758194 87.883957,169.805603 
	C93.203873,177.157639 101.500031,179.373535 109.759766,183.144043 
	C117.578186,185.026779 124.811493,186.457870 132.044800,187.888977 
z"/>
<path fill="#413126" opacity="1.000000" stroke="none" 
	d="
M143.258347,146.828934 
	C143.258347,146.828934 143.205505,146.730225 142.672256,146.783112 
	C137.693253,146.941376 133.221558,147.390564 128.808899,147.057526 
	C124.193405,146.709152 119.634674,145.608780 115.051125,144.837128 
	C115.051125,144.837128 115.008217,144.405579 115.056526,143.839447 
	C116.438072,142.451736 117.752167,140.959030 119.107719,140.920380 
	C126.425262,140.711761 133.756607,140.741882 141.075592,140.953140 
	C143.870789,141.033844 145.815598,142.432205 144.719391,145.782791 
	C144.719391,145.782791 144.864975,145.845200 144.552032,145.871796 
	C143.912170,146.208572 143.585251,146.518753 143.258347,146.828934 
z"/>
<path fill="#E6C8A7" opacity="1.000000" stroke="none" 
	d="
M145.077667,145.731369 
	C145.815598,142.432205 143.870789,141.033844 141.075592,140.953140 
	C133.756607,140.741882 126.425262,140.711761 119.107719,140.920380 
	C117.752167,140.959030 116.438072,142.451736 114.962997,143.643814 
	C114.731842,143.098450 114.302368,141.534088 114.609062,141.373215 
	C116.441132,140.412247 118.420349,139.210510 120.391907,139.131607 
	C127.105682,138.862900 133.839294,138.915741 140.560562,139.063324 
	C146.024948,139.183289 147.814697,141.768219 145.077667,145.731369 
z"/>
<path fill="#E9D0B3" opacity="1.000000" stroke="none" 
	d="
M113.296654,188.950348 
	C125.667374,191.010147 138.279343,193.056274 151.574829,191.393066 
	C151.998505,191.634949 152.008270,192.021133 152.008270,192.021118 
	C143.462799,192.212234 134.900833,192.792862 126.378777,192.431747 
	C122.054405,192.248474 117.802002,190.367188 113.296654,188.950348 
z"/>
<path fill="#E6C8A7" opacity="1.000000" stroke="none" 
	d="
M115.102966,145.210327 
	C119.634674,145.608780 124.193405,146.709152 128.808899,147.057526 
	C133.221558,147.390564 137.693253,146.941376 142.619080,146.800568 
	C141.188385,147.501648 139.307236,148.763550 137.361115,148.873337 
	C132.128860,149.168472 126.838104,149.301163 121.634239,148.815781 
	C119.393433,148.606766 117.309822,146.712280 115.102966,145.210327 
z"/>
<path fill="#E5CCAE" opacity="1.000000" stroke="none" 
	d="
M131.811066,187.596588 
	C124.811493,186.457870 117.578186,185.026779 110.068153,183.337189 
	C117.053391,184.487183 124.315353,185.895691 131.811066,187.596588 
z"/>
<path fill="#E8CDB0" opacity="1.000000" stroke="none" 
	d="
M152.451691,192.017349 
	C152.008270,192.021133 151.998505,191.634949 151.996155,191.441818 
	C156.716095,190.484253 161.438400,189.719833 166.576263,189.055252 
	C162.292923,190.107910 157.594009,191.060745 152.451691,192.017349 
z"/>
<path fill="#E9D0B3" opacity="1.000000" stroke="none" 
	d="
M106.267998,187.255005 
	C108.218300,187.434891 110.447853,187.851654 112.954803,188.522461 
	C111.003883,188.348312 108.775566,187.920105 106.267998,187.255005 
z"/>
<path fill="#E6C8A7" opacity="1.000000" stroke="none" 
	d="
M143.583099,146.720764 
	C143.585251,146.518753 143.912170,146.208572 144.570129,145.794708 
	C144.570068,145.998199 144.238953,146.305389 143.583099,146.720764 
z"/>
<path fill="#403129" opacity="1.000000" stroke="none" 
	d="
M151.968155,125.868088 
	C148.190857,119.335426 149.444244,113.553482 154.928726,110.689186 
	C159.387283,108.360687 164.777786,110.101402 167.283203,114.678734 
	C169.324661,118.408409 168.438065,123.675667 165.287613,126.534538 
	C161.594040,129.886246 157.389450,129.766464 151.968155,125.868088 
z"/>
<path fill="#41322A" opacity="1.000000" stroke="none" 
	d="
M105.062614,109.727158 
	C111.719353,110.333427 115.290848,114.005135 115.020134,119.532089 
	C114.779388,124.447083 110.547501,128.664078 105.653069,128.866150 
	C100.660706,129.072281 96.245964,125.187164 95.811668,120.205376 
	C95.318314,114.546036 98.476585,110.797119 105.062614,109.727158 
z"/>
</svg>